<?xml version="1.0" encoding="utf-8"?>
<!-- Generator: Adobe Illustrator 27.0.1, SVG Export Plug-In . SVG Version: 6.00 Build 0)  -->
<svg version="1.1" id="Layer_1" xmlns="http://www.w3.org/2000/svg" xmlns:xlink="http://www.w3.org/1999/xlink" x="0px" y="0px"
	 viewBox="0 0 669.8 199.6" style="enable-background:new 0 0 669.8 199.6;" xml:space="preserve">
<style type="text/css">
	.st0{fill:#4D4D4E;}
	.st1{fill-rule:evenodd;clip-rule:evenodd;fill:#4D4D4E;}
	.st2{fill:#003057;}
	.st3{fill:#AD8400;}
	.st4{fill:#FFFFFF;}
</style>
<g transform="translate(-137.2 -197.5)">
	<path class="st0" d="M640.5,314.9h4.6c1-0.1,1.9,0.1,2.8,0.6c0.6,0.4,0.9,1.1,0.9,1.8c0,0.6-0.2,1.1-0.6,1.5
		c-0.4,0.5-1,0.8-1.6,0.9c0.7,0,1.5,0.3,2.1,0.7c0.5,0.5,0.7,1.1,0.7,1.8c0,0.9-0.4,1.6-1.2,2.1c-1,0.5-2.1,0.8-3.2,0.7h-4.4v-0.4
		c0.2,0,0.4-0.1,0.6-0.3c0.1-0.1,0.1-0.3,0.1-0.6v-7.4c0-0.3,0-0.4-0.1-0.6c-0.1-0.1-0.3-0.1-0.6-0.1V314.9L640.5,314.9z
		 M643.3,316.2v2.9h1c0.5,0,1.1-0.1,1.5-0.4c0.3-0.2,0.5-0.6,0.6-1c0-0.4-0.1-0.8-0.4-1c-0.5-0.2-1-0.3-1.5-0.3L643.3,316.2
		L643.3,316.2z M643.3,320.3v3.2h1.5c0.6,0,1.1-0.1,1.6-0.4c0.7-0.5,0.8-1.4,0.3-2.1c-0.1-0.1-0.2-0.2-0.3-0.3
		c-0.5-0.3-1-0.5-1.6-0.4L643.3,320.3z"/>
	<path class="st0" d="M650.6,319.7c-0.2-2.5,1.7-4.7,4.3-4.9c0.2,0,0.4,0,0.6,0c0.6,0,1.2,0.1,1.8,0.3c0.5,0.2,1,0.5,1.5,0.9
		c0.6,0.5,1.1,1.1,1.3,1.8c0.3,0.7,0.4,1.5,0.4,2.2c0,1.4-0.4,2.7-1.3,3.7c-1,1-2.3,1.5-3.7,1.5c-0.6,0-1.2-0.1-1.8-0.3
		c-0.5-0.2-1-0.5-1.5-0.9c-0.6-0.5-1-1.1-1.3-1.8C650.7,321.4,650.6,320.6,650.6,319.7z M655.3,316c-0.7,0-1.4,0.3-1.8,0.9
		c-0.4,0.7-0.6,1.4-0.6,2.2c0,1.1,0.2,2.2,0.7,3.2c0.4,0.8,1.2,1.3,2.1,1.3c0.7,0,1.4-0.3,1.8-0.9c0.5-0.7,0.7-1.5,0.6-2.4
		c0-1.1-0.2-2.2-0.7-3.2C656.9,316.5,656.1,316,655.3,316z"/>
	<path class="st0" d="M661.6,314.9h4.3c1.1-0.1,2.1,0.1,3.1,0.6c0.6,0.5,1,1.3,1,2.1c0.1,0.7-0.2,1.3-0.7,1.8
		c-0.5,0.5-1.2,0.9-1.9,1c0.4,0.6,0.9,1.3,1.5,2.2c0.7,1.2,1.3,1.8,1.8,1.8h0.1v0.4c-0.3,0-0.6-0.1-0.9-0.1h-0.6
		c-0.4,0-0.9,0-1.3,0.1h-0.1c-0.6-1.1-1.2-2.1-1.9-3.1c-0.4-0.5-0.8-1-1-1.6v-0.1h0.3c0.7,0,1.4-0.2,1.9-0.6
		c0.5-0.3,0.7-0.9,0.7-1.5c0.1-0.5-0.2-1-0.6-1.3c-0.5-0.3-1-0.5-1.6-0.4h-1v7.4c0,0.3,0,0.4,0.1,0.6c0.1,0.1,0.3,0.1,0.6,0.3v0.4
		c-0.4,0-0.7-0.1-1-0.1h-1.8c-0.4,0-0.7,0-1,0.1v-0.4c0.2,0,0.4-0.1,0.6-0.3c0.1-0.1,0.1-0.3,0.1-0.6V316c0-0.3,0-0.4-0.1-0.6
		c-0.1-0.1-0.3-0.1-0.6-0.1L661.6,314.9L661.6,314.9z"/>
	<path class="st0" d="M671.2,314.9h3.5c0.7,0,1.4,0,2.1,0.1c0.5,0.1,1,0.2,1.5,0.4c0.8,0.3,1.5,0.9,1.9,1.6c0.5,0.8,0.7,1.7,0.7,2.7
		c0.1,1.4-0.5,2.8-1.6,3.7c-1.4,1-3,1.4-4.7,1.3h-3.4v-0.4c0.2,0,0.4-0.1,0.6-0.3c0.1-0.1,0.1-0.3,0.1-0.6V316c0-0.3,0-0.4-0.1-0.6
		c-0.1-0.1-0.3-0.1-0.6-0.1L671.2,314.9L671.2,314.9z M674,316.2v7.2h0.4c1.1,0.1,2.1-0.2,2.9-0.9c1.4-1.6,1.4-3.9,0-5.5
		c-0.8-0.6-1.9-1-2.9-0.9L674,316.2L674,316.2z"/>
	<path class="st0" d="M686.2,319.7c-0.2-2.5,1.7-4.7,4.3-4.9c0.2,0,0.4,0,0.6,0c0.6,0,1.2,0.1,1.8,0.3c0.5,0.2,1,0.5,1.5,0.9
		c0.6,0.5,1.1,1.1,1.3,1.8c0.3,0.7,0.4,1.5,0.4,2.2c0,1.4-0.4,2.7-1.3,3.7c-1,1-2.3,1.5-3.7,1.5c-0.6,0-1.2-0.1-1.8-0.3
		c-0.5-0.2-1-0.5-1.5-0.9c-0.6-0.5-1-1.1-1.3-1.8C686.4,321.4,686.3,320.6,686.2,319.7z M691,316c-0.7,0-1.4,0.3-1.8,0.9
		c-0.4,0.7-0.6,1.4-0.6,2.2c0,1.1,0.2,2.2,0.7,3.2c0.4,0.8,1.2,1.3,2.1,1.3c0.7,0,1.4-0.3,1.8-0.9c0.5-0.7,0.7-1.5,0.6-2.4
		c0-1.1-0.2-2.2-0.7-3.2C692.6,316.5,691.8,316,691,316z"/>
	<path class="st0" d="M697.2,314.9c0.3,0,0.6,0.1,0.9,0.1h1.8c0.3,0,0.6,0,0.9-0.1v0.4c-0.2,0-0.4,0.1-0.6,0.3
		c-0.1,0.1-0.1,0.3-0.1,0.6v7.4c0,0.3,0,0.4,0.1,0.6c0.1,0.1,0.3,0.1,0.6,0.3v0.4c-0.4,0-0.7-0.1-1-0.1h-1.8c-0.4,0-0.7,0-1,0.1
		v-0.4c0.2,0,0.4-0.1,0.6-0.3c0.1-0.1,0.1-0.3,0.1-0.6v-7.4c0-0.3,0-0.4-0.1-0.6c-0.1-0.1-0.3-0.1-0.6-0.3L697.2,314.9L697.2,314.9z
		"/>
	<path class="st0" d="M702,314.9h3.5c0.7,0,1.4,0,2.1,0.1c0.5,0.1,1,0.2,1.5,0.4c0.8,0.3,1.5,0.9,1.9,1.6c0.5,0.8,0.7,1.7,0.7,2.7
		c0.1,1.4-0.5,2.8-1.6,3.7c-1.4,1-3,1.4-4.7,1.3H702v-0.4c0.2,0,0.4-0.1,0.6-0.3c0.1-0.1,0.1-0.3,0.1-0.6V316c0-0.3,0-0.4-0.1-0.6
		c-0.1-0.1-0.3-0.1-0.6-0.1L702,314.9L702,314.9z M704.8,316.2v7.2h0.4c1.1,0.1,2.1-0.2,2.9-0.9c1.4-1.6,1.4-3.9,0-5.5
		c-0.8-0.6-1.9-1-2.9-0.9L704.8,316.2L704.8,316.2z"/>
	<path class="st0" d="M712.6,314.9h7.7v1.3c0,0.4,0,0.8,0.1,1.2h-0.3c0-0.3-0.1-0.6-0.3-0.9c-0.1-0.1-0.6-0.1-1.2-0.1h-3.1v2.7h1.9
		c0.4,0,0.6,0,0.7-0.1s0.1-0.3,0.3-0.6h0.3v2.9h-0.3c0-0.3-0.1-0.4-0.1-0.6c-0.2-0.1-0.5-0.2-0.7-0.1h-1.9v3.1h3.4
		c0.4,0,0.8-0.1,1.2-0.3c0.2-0.4,0.4-0.8,0.4-1.2h0.3c0,0.6-0.1,1-0.1,1.6c0,0.6-0.1,0.9-0.1,1.3h-8v-0.4c0.2,0,0.4-0.1,0.6-0.3
		c0.1-0.1,0.1-0.3,0.1-0.6v-7.4c0-0.3,0-0.4-0.1-0.6c-0.1-0.1-0.3-0.1-0.6-0.1L712.6,314.9L712.6,314.9z"/>
	<path class="st0" d="M724.4,314.9c0.3,0,0.5,0,0.7,0.1h1.5c0.3,0,0.5,0,0.7-0.1c0.1,0.2,0.2,0.4,0.1,0.6c0,0.1,0.1,0.3,0.1,0.4
		l2.8,7.4c0.1,0.3,0.2,0.5,0.4,0.7c0.1,0.1,0.3,0.1,0.6,0.3v0.4c-0.3,0-0.6-0.1-0.9-0.1h-1.8c-0.4,0-0.7,0-1,0.1v-0.4
		c0.3,0,0.4-0.1,0.6-0.1c0.1-0.1,0.1-0.1,0.1-0.3v-0.3l-0.6-1.9h-3.1l-0.6,1.6v0.4c0,0.3,0.2,0.5,0.4,0.6c0,0,0.1,0,0.1,0v0.4
		c-0.3,0-0.6-0.1-0.9-0.1h-1.5c-0.3,0-0.5,0-0.7,0.1v-0.4c0.3,0,0.6-0.4,0.9-1c0-0.1,0-0.1,0.1-0.1l2.5-7.1c0-0.1,0-0.1,0.1-0.3
		v-0.1c0-0.1,0-0.1-0.1-0.3c-0.1-0.1-0.3-0.2-0.4-0.1L724.4,314.9L724.4,314.9z M725.9,317.1l-1,3.4h2.2L725.9,317.1z"/>
	<path class="st0" d="M739.3,315.3v2.8H739c-0.1-0.6-0.4-1.1-0.9-1.5c-0.5-0.4-1-0.6-1.6-0.6c-0.8,0-1.6,0.3-2.2,0.9
		c-0.6,0.7-0.9,1.6-0.9,2.5c-0.1,1,0.3,2.1,1,2.8c0.6,0.8,1.5,1.2,2.5,1.2c0.5,0,0.9-0.1,1.3-0.3c0.5-0.2,0.9-0.4,1.3-0.7l-0.1,1.6
		c-0.4,0.3-0.9,0.6-1.5,0.7c-1.1,0.4-2.4,0.4-3.5,0c-0.6-0.1-1.1-0.5-1.5-0.9c-0.6-0.5-1.1-1.1-1.3-1.8c-0.3-0.7-0.4-1.5-0.4-2.2
		c0-1.4,0.5-2.7,1.5-3.7c1.1-1,2.5-1.6,4-1.5c0.4,0,0.9,0,1.3,0.1C738.5,314.9,738.9,315,739.3,315.3z"/>
	<path class="st0" d="M740.6,314.9c0.3,0,0.6,0.1,0.9,0.1h1.8c0.3,0,0.6,0,0.9-0.1v0.4c-0.2,0-0.4,0.1-0.6,0.3
		c-0.1,0.1-0.1,0.3-0.1,0.6v2.8h3.8v-2.8c0-0.3,0-0.4-0.1-0.6c-0.1-0.1-0.3-0.1-0.6-0.3V315c0.3,0,0.6,0.1,0.9,0.1h1.8
		c0.3,0,0.6,0,0.9-0.1v0.4c-0.2,0-0.4,0.1-0.6,0.3c-0.1,0.1-0.1,0.3-0.1,0.6v7.4c0,0.3,0,0.4,0.1,0.6c0.1,0.1,0.3,0.1,0.6,0.3v0.4
		c-0.4,0-0.7-0.1-1-0.1h-1.8c-0.4,0-0.7,0-1,0.1v-0.4c0.2,0,0.4-0.1,0.6-0.3c0.1-0.1,0.1-0.3,0.1-0.6v-3.2h-3.8v3.2
		c0,0.3,0,0.4,0.1,0.6c0.1,0.1,0.3,0.1,0.6,0.3v0.4c-0.4,0-0.7-0.1-1-0.1h-1.8c-0.4,0-0.7,0-1,0.1v-0.4c0.2,0,0.4-0.1,0.6-0.3
		c0.1-0.1,0.1-0.3,0.1-0.6v-7.4c0-0.3,0-0.4-0.1-0.6c-0.1-0.1-0.3-0.1-0.6-0.3L740.6,314.9L740.6,314.9z"/>
	<path class="st0" d="M754.1,314.9c0.3,0,0.5,0,0.7,0.1h1.5c0.3,0,0.5,0,0.7-0.1c0.1,0.2,0.2,0.4,0.1,0.6c0,0.1,0.1,0.3,0.1,0.4
		l2.8,7.4c0.1,0.3,0.2,0.5,0.4,0.7c0.1,0.1,0.3,0.1,0.6,0.3v0.4c-0.3,0-0.6-0.1-0.9-0.1h-1.8c-0.4,0-0.7,0-1,0.1v-0.4
		c0.3,0,0.4-0.1,0.6-0.1c0.1-0.1,0.1-0.1,0.1-0.3v-0.3l-0.6-1.9h-3.1l-0.6,1.6v0.4c0,0.3,0.2,0.5,0.4,0.6c0,0,0.1,0,0.1,0v0.4
		c-0.3,0-0.6-0.1-0.9-0.1h-1.5c-0.3,0-0.5,0-0.7,0.1v-0.4c0.3,0,0.6-0.4,0.9-1c0-0.1,0-0.1,0.1-0.1l2.5-7.1c0-0.1,0-0.1,0.1-0.3
		v-0.1c0-0.1,0-0.1-0.1-0.3c-0.1,0-0.3-0.1-0.4-0.1L754.1,314.9L754.1,314.9z M755.5,317.1l-1,3.4h2.2L755.5,317.1z"/>
	<path class="st0" d="M761.1,314.9c0.3,0,0.6,0.1,0.9,0.1h1.8c0.3,0,0.6,0,0.9-0.1v0.4c-0.2,0-0.4,0.1-0.6,0.3
		c-0.1,0.1-0.1,0.3-0.1,0.6v7.4c0,0.3,0,0.4,0.1,0.6c0.1,0.1,0.3,0.1,0.6,0.3v0.4c-0.4,0-0.7-0.1-1-0.1h-1.8c-0.4,0-0.7,0-1,0.1
		v-0.4c0.2,0,0.4-0.1,0.6-0.3c0.1-0.1,0.1-0.3,0.1-0.6v-7.4c0-0.3,0-0.4-0.1-0.6c-0.1-0.1-0.3-0.1-0.6-0.3L761.1,314.9L761.1,314.9z
		"/>
	<path class="st0" d="M773.4,315.3v1.5c0,0.4,0,0.9,0.1,1.3h-0.3c-0.1-0.6-0.5-1.2-1-1.6c-0.6-0.4-1.2-0.6-1.9-0.6
		c-0.5,0-1,0.1-1.3,0.4c-0.3,0.3-0.5,0.6-0.4,1c0,0.6,0.7,1.2,2.2,1.6c0.1,0,0.3,0.1,0.4,0.1c0.9,0.2,1.7,0.6,2.4,1.2
		c0.4,0.4,0.7,1,0.7,1.6c0,0.9-0.5,1.7-1.2,2.2c-0.9,0.6-2,0.9-3.1,0.9c-0.6,0-1.2,0-1.8-0.1c-0.6-0.1-1.2-0.3-1.6-0.4v-3.1h0.3
		c0.1,0.7,0.5,1.3,1,1.8c0.6,0.5,1.3,0.7,2.1,0.7c0.6,0,1.1-0.1,1.6-0.4c0.4-0.2,0.6-0.6,0.6-1c0-0.6-0.7-1.2-2.1-1.6
		c-0.1,0-0.3-0.1-0.4-0.1c-0.9-0.2-1.7-0.6-2.4-1.2c-0.5-0.5-0.7-1.1-0.7-1.8c-0.1-0.8,0.3-1.6,1-2.1c0.9-0.6,1.9-0.9,2.9-0.9
		c0.6,0,1.2,0,1.8,0.1C772.7,314.9,773.1,315.1,773.4,315.3z"/>
	<path class="st0" d="M622.3,334.3c0.3,0,0.5,0,0.7,0.1h1.5c0.3,0,0.5,0,0.7-0.1c0.1,0.2,0.2,0.4,0.1,0.6c0,0.1,0.1,0.3,0.1,0.4
		l2.8,7.4c0.1,0.3,0.2,0.5,0.4,0.7c0.1,0.1,0.3,0.1,0.6,0.3v0.4c-0.3,0-0.6-0.1-0.9-0.1h-1.8c-0.4,0-0.7,0-1,0.1v-0.4
		c0.3,0,0.4-0.1,0.6-0.1c0.1-0.1,0.1-0.1,0.1-0.3V343l-0.6-1.9h-3.1l-0.6,1.6v0.4c0,0.3,0.2,0.5,0.4,0.6c0,0,0.1,0,0.1,0v0.4
		c-0.3,0-0.6-0.1-0.9-0.1h-1.5c-0.3,0-0.5,0-0.7,0.1v-0.4c0.3,0,0.6-0.4,0.9-1c0-0.1,0-0.1,0.1-0.1l2.5-7.1c0-0.1,0-0.1,0.1-0.3
		v-0.1c0-0.1,0-0.1-0.1-0.3c-0.1,0-0.3-0.1-0.4-0.1L622.3,334.3L622.3,334.3z M623.9,336.5l-1,3.4h2.2L623.9,336.5z"/>
	<path class="st0" d="M637.7,334.8v2.8h-0.4c-0.1-0.6-0.4-1.1-0.9-1.5c-0.5-0.4-1.1-0.6-1.8-0.6c-0.9-0.1-1.8,0.3-2.4,1
		c-0.6,0.7-1,1.7-0.9,2.7c0,1,0.3,2,0.9,2.8c0.5,0.7,1.2,1.1,2.1,1.2c0.9,0.1,1.6-0.5,1.8-1.3c0-0.1,0-0.3,0-0.4v-0.6
		c0-0.3-0.1-0.4-0.1-0.6c-0.2-0.1-0.5-0.2-0.7-0.1v-0.4c0.3,0,0.6,0.1,0.9,0.1h2.2c0.3,0,0.6,0,0.9-0.1v0.4c-0.3,0-0.5,0.1-0.7,0.3
		c-0.1,0.2-0.2,0.5-0.1,0.7v3.2h-0.9l-0.3-1c-0.3,0.5-0.8,0.8-1.3,0.9c-0.5,0.2-1.1,0.3-1.6,0.3c-1.3,0-2.5-0.5-3.4-1.5
		c-1.8-2.1-1.8-5.3,0.1-7.4c1.1-1,2.5-1.6,4-1.5c0.5,0,1.1,0,1.6,0.1C637,334.4,637.4,334.5,637.7,334.8z"/>
	<path class="st0" d="M639.7,334.3c0.3,0,0.6,0.1,0.9,0.1h1.8c0.3,0,0.6,0,0.9-0.1v0.4c-0.2,0-0.4,0.1-0.6,0.3
		c-0.1,0.1-0.1,0.3-0.1,0.6v4.6c-0.1,0.8,0.1,1.6,0.4,2.4c0.8,0.8,2.1,0.8,2.9,0c0.4-0.7,0.5-1.5,0.4-2.4v-4.6c0-0.3,0-0.4-0.1-0.6
		c-0.1-0.1-0.3-0.1-0.6-0.3v-0.3c0.3,0,0.6,0.1,0.9,0.1h1.8c0.3,0,0.6,0,0.9-0.1v0.4c-0.2,0-0.4,0.1-0.6,0.3
		c-0.1,0.1-0.1,0.3-0.1,0.6v4.6c0.1,1.2-0.2,2.4-0.9,3.4c-0.9,0.7-2.1,1-3.2,0.9c-1.2,0.1-2.3-0.2-3.2-0.9c-0.7-1-1-2.2-0.9-3.4
		v-4.6c0-0.3,0-0.4-0.1-0.6s-0.3-0.1-0.6-0.3L639.7,334.3z"/>
	<path class="st0" d="M657.9,334.8v1.5c0,0.4,0,0.9,0.1,1.3h-0.3c-0.1-0.6-0.5-1.2-1-1.6c-0.6-0.4-1.2-0.6-1.9-0.6
		c-0.5,0-1,0.1-1.3,0.4c-0.3,0.3-0.5,0.6-0.4,1c0,0.6,0.7,1.2,2.2,1.6c0.1,0,0.3,0.1,0.4,0.1c0.9,0.2,1.7,0.6,2.4,1.2
		c0.4,0.4,0.7,1,0.7,1.6c0,0.9-0.5,1.7-1.2,2.2c-0.9,0.6-2,0.9-3.1,0.9c-0.6,0-1.2,0-1.8-0.1c-0.6-0.1-1.2-0.3-1.6-0.4v-3.1h0.3
		c0.1,0.7,0.5,1.3,1,1.8c0.6,0.5,1.3,0.7,2.1,0.7c0.6,0,1.1-0.1,1.6-0.4c0.4-0.2,0.6-0.6,0.6-1c0-0.6-0.7-1.2-2.1-1.6
		c-0.1,0-0.3-0.1-0.4-0.1c-0.9-0.2-1.7-0.6-2.4-1.2c-0.5-0.5-0.7-1.1-0.7-1.8c-0.1-0.8,0.3-1.6,1-2.1c0.9-0.6,1.9-0.9,2.9-0.9
		c0.6,0,1.2,0,1.8,0.1C657.3,334.4,657.6,334.6,657.9,334.8z"/>
	<path class="st0" d="M663.7,339c-0.2-2.5,1.7-4.7,4.3-4.9c0.2,0,0.4,0,0.6,0c0.6,0,1.2,0.1,1.8,0.3c0.5,0.2,1,0.5,1.5,0.9
		c0.6,0.5,1.1,1.1,1.3,1.8c0.3,0.7,0.4,1.5,0.4,2.2c0,1.4-0.4,2.7-1.3,3.7c-1,1-2.3,1.5-3.7,1.5c-0.6,0-1.2-0.1-1.8-0.3
		c-0.5-0.2-1-0.5-1.5-0.9c-0.6-0.5-1-1.1-1.3-1.8C663.8,340.7,663.7,339.9,663.7,339z M668.4,335.5c-0.7,0-1.4,0.3-1.8,0.9
		c-0.4,0.7-0.6,1.4-0.6,2.2c0,1.1,0.2,2.2,0.7,3.2c0.4,0.8,1.2,1.3,2.1,1.3c0.7,0,1.4-0.3,1.8-0.9c0.5-0.7,0.7-1.5,0.6-2.4
		c0-1.1-0.2-2.2-0.7-3.2C670,335.9,669.3,335.5,668.4,335.5z"/>
	<path class="st0" d="M674.7,334.3c0.3,0,0.6,0.1,0.9,0.1h1.8c0.3,0,0.6,0,0.9-0.1v0.4c-0.2,0-0.4,0.1-0.6,0.3
		c-0.1,0.1-0.1,0.3-0.1,0.6v7.4c0,0.3,0,0.4,0.1,0.6c0.1,0.1,0.3,0.1,0.6,0.3v0.4c-0.4,0-0.7-0.1-1-0.1h-1.8c-0.4,0-0.7,0-1,0.1
		v-0.4c0.2,0,0.4-0.1,0.6-0.3c0.1-0.1,0.1-0.3,0.1-0.6v-7.4c0-0.3,0-0.4-0.1-0.6c-0.1-0.1-0.3-0.1-0.6-0.3L674.7,334.3L674.7,334.3z
		"/>
	<path class="st0" d="M679.5,334.3c0.3,0,0.6,0.1,0.9,0.1h1.8c0.4,0,0.7,0,1-0.1v0.4c-0.3,0-0.5,0-0.7,0.1c-0.1,0.1-0.1,0.3-0.1,0.6
		v7.2h2.8c0.4,0,0.9-0.1,1.2-0.4c0.3-0.4,0.5-0.8,0.6-1.3h0.3c-0.1,0.5-0.2,1-0.1,1.5c0,0.4-0.1,1-0.1,1.5h-7.5v-0.4
		c0.2,0,0.4-0.1,0.6-0.3c0.1-0.1,0.1-0.3,0.1-0.6v-7.4c0-0.3,0-0.4-0.1-0.6c-0.1-0.1-0.3-0.1-0.6-0.3H679.5z"/>
	<path class="st0" d="M687.7,334.3c0.3,0,0.6,0.1,0.9,0.1h1.8c0.3,0,0.6,0,0.9-0.1v0.4c-0.2,0-0.4,0.1-0.6,0.3
		c-0.1,0.1-0.1,0.3-0.1,0.6v7.4c0,0.3,0,0.4,0.1,0.6c0.1,0.1,0.3,0.1,0.6,0.3v0.4c-0.4,0-0.7-0.1-1-0.1h-1.8c-0.4,0-0.7,0-1,0.1
		v-0.4c0.2,0,0.4-0.1,0.6-0.3c0.1-0.1,0.1-0.3,0.1-0.6v-7.4c0-0.3,0-0.4-0.1-0.6c-0.1-0.1-0.3-0.1-0.6-0.3L687.7,334.3L687.7,334.3z
		"/>
	<path class="st0" d="M692.4,334.3c0.3,0,0.6,0.1,0.9,0.1h1.8c0.3,0,0.6,0,0.9-0.1v0.4c-0.2,0-0.4,0.1-0.6,0.3
		c-0.1,0.1-0.1,0.3-0.1,0.6v4.6c-0.1,0.8,0.1,1.6,0.4,2.4c0.8,0.8,2.1,0.8,2.9,0c0.4-0.7,0.5-1.5,0.4-2.4v-4.6c0-0.3,0-0.4-0.1-0.6
		c-0.1-0.1-0.3-0.1-0.6-0.3v-0.3c0.3,0,0.6,0.1,0.9,0.1h1.8c0.3,0,0.6,0,0.9-0.1v0.4c-0.2,0-0.4,0.1-0.6,0.3
		c-0.1,0.1-0.1,0.3-0.1,0.6v4.6c0.1,1.2-0.2,2.4-0.9,3.4c-0.9,0.7-2.1,1-3.2,0.9c-1.2,0.1-2.3-0.2-3.2-0.9c-0.7-1-1-2.2-0.9-3.4
		v-4.6c0-0.3,0-0.4-0.1-0.6s-0.3-0.1-0.6-0.3L692.4,334.3L692.4,334.3z M696.6,333.3h-0.9l2.1-2.2l0.6-0.6c0.1-0.1,0.3-0.1,0.6-0.1
		c0.5,0.1,0.8,0.4,0.9,0.9c0,0.2,0,0.3-0.1,0.4c-0.2,0.2-0.4,0.3-0.6,0.4L696.6,333.3z"/>
	<path class="st0" d="M703.2,344.2v-0.4c0.2,0,0.4-0.1,0.6-0.3c0.1-0.1,0.1-0.4,0.1-1v-6.9c0-0.4,0-0.6-0.1-0.7
		c-0.1-0.1-0.3-0.1-0.6-0.3V334c0.3,0,0.5,0,0.7,0.1h1.8c0.3,0,0.6,0,0.9-0.1l4.4,6.8v-5.3c0-0.4,0-0.7-0.1-0.9
		c-0.2-0.2-0.5-0.3-0.7-0.3V334c0.3,0,0.6,0,0.9,0.1h1.5c0.3,0,0.5,0,0.7-0.1v0.3c-0.2,0-0.4,0.1-0.6,0.3c-0.1,0.2-0.2,0.5-0.1,0.7
		v8.6h-1.6l-5.3-8v6.5c0,0.3,0.1,0.6,0.1,0.9c0.2,0.2,0.6,0.3,0.9,0.3v0.4c-0.3,0-0.6-0.1-0.9-0.1h-1.5
		C703.9,344.1,703.6,344.2,703.2,344.2z"/>
	<path class="st0" d="M716.6,334.3c0.3,0,0.5,0,0.7,0.1h1.5c0.3,0,0.5,0,0.7-0.1c0.1,0.2,0.2,0.4,0.1,0.6c0,0.1,0.1,0.3,0.1,0.4
		l2.8,7.4c0.1,0.3,0.2,0.5,0.4,0.7c0.1,0.1,0.3,0.1,0.6,0.3v0.4c-0.3,0-0.6-0.1-0.9-0.1H721c-0.4,0-0.7,0-1,0.1v-0.4
		c0.3,0,0.4-0.1,0.6-0.1c0.1-0.1,0.1-0.1,0.1-0.3V343l-0.6-1.9h-3.1l-0.6,1.6v0.4c0,0.3,0.2,0.5,0.4,0.6c0,0,0.1,0,0.1,0v0.4
		c-0.3,0-0.6-0.1-0.9-0.1h-1.5c-0.3,0-0.5,0-0.7,0.1v-0.4c0.3,0,0.6-0.4,0.9-1c0-0.1,0-0.1,0.1-0.1l2.5-7.1c0-0.1,0-0.1,0.1-0.3
		v-0.1c0-0.1,0-0.1-0.1-0.3c-0.1,0-0.3-0.1-0.4-0.1L716.6,334.3L716.6,334.3z M718.2,336.5l-1,3.4h2.2L718.2,336.5z"/>
	<path class="st0" d="M736.1,334.8v2.8h-0.3c-0.1-0.6-0.4-1.1-0.9-1.5c-0.5-0.4-1-0.6-1.6-0.6c-0.8,0-1.6,0.3-2.2,0.9
		c-0.6,0.7-0.9,1.6-0.9,2.5c-0.1,1,0.3,2.1,1,2.8c0.6,0.8,1.5,1.2,2.5,1.2c0.5,0,0.9-0.1,1.3-0.3c0.5-0.2,0.9-0.4,1.3-0.7l-0.1,1.6
		c-0.4,0.3-0.9,0.6-1.5,0.7c-1.1,0.4-2.4,0.4-3.5,0c-0.6-0.1-1.1-0.5-1.5-0.9c-0.6-0.5-1.1-1.1-1.3-1.8c-0.3-0.7-0.4-1.5-0.4-2.2
		c0-1.4,0.5-2.7,1.5-3.7c1.1-1,2.5-1.6,4-1.5c0.4,0,0.9,0,1.3,0.1C735.2,334.3,735.7,334.4,736.1,334.8z"/>
	<path class="st0" d="M737.6,334.3c0.3,0,0.6,0.1,0.9,0.1h1.8c0.3,0,0.6,0,0.9-0.1v0.4c-0.2,0-0.4,0.1-0.6,0.3
		c-0.1,0.1-0.1,0.3-0.1,0.6v2.8h3.8v-2.8c0-0.3,0-0.4-0.1-0.6c-0.1-0.1-0.3-0.1-0.6-0.3v-0.3c0.3,0,0.6,0.1,0.9,0.1h1.8
		c0.3,0,0.6,0,0.9-0.1v0.4c-0.2,0-0.4,0.1-0.6,0.3c-0.1,0.1-0.1,0.3-0.1,0.6v7.4c0,0.3,0,0.4,0.1,0.6c0.1,0.1,0.3,0.1,0.6,0.3v0.4
		c-0.4,0-0.7-0.1-1-0.1h-1.8c-0.4,0-0.7,0-1,0.1V344c0.2,0,0.4-0.1,0.6-0.3c0.1-0.1,0.1-0.3,0.1-0.6v-3.2h-3.8v3.2
		c0,0.3,0,0.4,0.1,0.6c0.1,0.1,0.3,0.1,0.6,0.3v0.4c-0.4,0-0.7-0.1-1-0.1H738c-0.4,0-0.7,0-1,0.1V344c0.2,0,0.4-0.1,0.6-0.3
		c0.1-0.1,0.1-0.3,0.1-0.6v-7.4c0-0.3,0-0.4-0.1-0.6s-0.3-0.1-0.6-0.3L737.6,334.3L737.6,334.3z"/>
	<path class="st0" d="M748.2,334.3c0.3,0,0.6,0.1,0.9,0.1h1.8c0.3,0,0.6,0,0.9-0.1v0.4c-0.2,0-0.4,0.1-0.6,0.3
		c-0.1,0.1-0.1,0.3-0.1,0.6v7.4c0,0.3,0,0.4,0.1,0.6c0.1,0.1,0.3,0.1,0.6,0.3v0.4c-0.4,0-0.7-0.1-1-0.1h-1.8c-0.4,0-0.7,0-1,0.1
		v-0.4c0.2,0,0.4-0.1,0.6-0.3c0.1-0.1,0.1-0.3,0.1-0.6v-7.4c0-0.3,0-0.4-0.1-0.6c-0.1-0.1-0.3-0.1-0.6-0.3L748.2,334.3L748.2,334.3z
		"/>
	<path class="st0" d="M755.5,334.3c0.3,0,0.5,0,0.7,0.1h1.5c0.3,0,0.5,0,0.7-0.1c0.1,0.2,0.2,0.4,0.1,0.6c0,0.1,0.1,0.3,0.1,0.4
		l2.8,7.4c0.1,0.3,0.2,0.5,0.4,0.7c0.1,0.1,0.3,0.1,0.6,0.3v0.4c-0.3,0-0.6-0.1-0.9-0.1H760c-0.4,0-0.7,0-1,0.1v-0.4
		c0.3,0,0.4-0.1,0.6-0.1c0.1-0.1,0.1-0.1,0.1-0.3V343l-0.6-1.9H756l-0.6,1.6v0.4c0,0.3,0.2,0.5,0.4,0.6c0,0,0.1,0,0.1,0v0.4
		c-0.3,0-0.6-0.1-0.9-0.1h-1.5c-0.3,0-0.5,0-0.7,0.1v-0.4c0.3,0,0.6-0.4,0.9-1c0-0.1,0-0.1,0.1-0.1l2.5-7.1c0-0.1,0-0.1,0.1-0.3
		v-0.1c0-0.1,0-0.1-0.1-0.3c-0.1,0-0.3-0.1-0.4-0.1L755.5,334.3L755.5,334.3z M757.2,336.5l-1,3.4h2.2L757.2,336.5z"/>
	<path class="st0" d="M762.8,334.3h4.3c1.1-0.1,2.1,0.1,3.1,0.6c0.6,0.5,1,1.3,1,2.1c0.1,0.7-0.2,1.3-0.7,1.8
		c-0.5,0.5-1.2,0.9-1.9,1c0.4,0.6,0.9,1.3,1.5,2.2c0.7,1.2,1.3,1.8,1.8,1.8h0.1v0.4c-0.3,0-0.6-0.1-0.9-0.1h-0.6
		c-0.4,0-0.9,0-1.3,0.1H769c-0.6-1.1-1.2-2.1-1.9-3.1c-0.4-0.5-0.8-1-1-1.6v-0.1h0.3c0.7,0,1.4-0.2,1.9-0.6c0.5-0.3,0.7-0.9,0.7-1.5
		c0.1-0.5-0.2-1-0.6-1.3c-0.5-0.3-1-0.5-1.6-0.4h-1v7.4c0,0.3,0,0.4,0.1,0.6c0.1,0.1,0.3,0.1,0.6,0.3v0.4c-0.4,0-0.7-0.1-1-0.1h-1.8
		c-0.4,0-0.7,0-1,0.1v-0.4c0.2,0,0.4-0.1,0.6-0.3c0.1-0.1,0.1-0.3,0.1-0.6v-7.4c0-0.3,0-0.4-0.1-0.6c-0.1-0.1-0.3-0.1-0.6-0.1
		L762.8,334.3L762.8,334.3z"/>
	<path class="st0" d="M772.3,334.3h4.3c1.1-0.1,2.1,0.1,3.1,0.6c0.6,0.5,1,1.3,1,2.1c0.1,0.7-0.2,1.3-0.7,1.8
		c-0.5,0.5-1.2,0.9-1.9,1c0.4,0.6,0.9,1.3,1.5,2.2c0.7,1.2,1.3,1.8,1.8,1.8h0.1v0.4c-0.3,0-0.6-0.1-0.9-0.1H780
		c-0.4,0-0.9,0-1.3,0.1h-0.1c-0.6-1.1-1.2-2.1-1.9-3.1c-0.4-0.5-0.8-1-1-1.6v-0.1h0.3c0.7,0,1.4-0.2,1.9-0.6
		c0.5-0.3,0.7-0.9,0.7-1.5c0.1-0.5-0.2-1-0.6-1.3c-0.5-0.3-1-0.5-1.6-0.4h-1v7.4c0,0.3,0,0.4,0.1,0.6c0.1,0.1,0.3,0.1,0.6,0.3v0.4
		c-0.4,0-0.7-0.1-1-0.1h-1.8c-0.4,0-0.7,0-1,0.1v-0.4c0.2,0,0.4-0.1,0.6-0.3c0.1-0.1,0.1-0.3,0.1-0.6v-7.4c0-0.3,0-0.4-0.1-0.6
		c-0.1-0.1-0.3-0.1-0.6-0.1L772.3,334.3L772.3,334.3z"/>
	<path class="st0" d="M783.7,334.3c0.3,0,0.5,0,0.7,0.1h1.5c0.3,0,0.5,0,0.7-0.1c0.1,0.2,0.2,0.4,0.1,0.6c0,0.1,0.1,0.3,0.1,0.4
		l2.8,7.4c0.1,0.3,0.2,0.5,0.4,0.7c0.1,0.1,0.3,0.1,0.6,0.3v0.4c-0.3,0-0.6-0.1-0.9-0.1h-1.8c-0.4,0-0.7,0-1,0.1v-0.4
		c0.3,0,0.4-0.1,0.6-0.1c0.1-0.1,0.1-0.1,0.1-0.3V343l-0.6-1.9h-3.4l-0.6,1.6v0.4c0,0.3,0.2,0.5,0.4,0.6c0,0,0.1,0,0.1,0v0.4
		c-0.3,0-0.6-0.1-0.9-0.1h-1.5c-0.3,0-0.5,0-0.7,0.1v-0.4c0.3,0,0.6-0.4,0.9-1c0-0.1,0-0.1,0.1-0.1l2.5-7.1c0-0.1,0-0.1,0.1-0.3
		v-0.1c0-0.1,0-0.1-0.1-0.3c-0.1,0-0.3-0.1-0.4-0.1L783.7,334.3L783.7,334.3z M785.3,336.5l-1,3.4h2.2L785.3,336.5z"/>
	<path class="st0" d="M790.9,334.3c0.3,0,0.6,0.1,0.9,0.1h1.8c0.3,0,0.6,0,0.9-0.1v0.4c-0.2,0-0.4,0.1-0.6,0.3
		c-0.1,0.1-0.1,0.3-0.1,0.6v7.4c0,0.3,0,0.4,0.1,0.6c0.1,0.1,0.3,0.1,0.6,0.3v0.4c-0.4,0-0.7-0.1-1-0.1h-1.8c-0.4,0-0.7,0-1,0.1
		v-0.4c0.2,0,0.4-0.1,0.6-0.3c0.1-0.1,0.1-0.3,0.1-0.6v-7.4c0-0.3,0-0.4-0.1-0.6c-0.1-0.1-0.3-0.1-0.6-0.3L790.9,334.3L790.9,334.3z
		 M792.1,333.3h-0.9l2.1-2.2l0.6-0.6c0.1-0.1,0.3-0.1,0.6-0.1c0.5,0.1,0.8,0.4,0.9,0.9c0,0.2,0,0.3-0.1,0.4
		c-0.2,0.2-0.4,0.3-0.6,0.4L792.1,333.3z"/>
	<path class="st0" d="M640.5,375.5V375c0.2,0,0.4-0.1,0.6-0.3c0.1-0.1,0.1-0.3,0.1-0.6v-7.4c0-0.3,0-0.4-0.1-0.6
		c-0.1-0.1-0.3-0.1-0.6-0.3v-0.4c0.3,0,0.6,0.1,0.9,0.1h1.8c0.3,0,0.6,0,0.9-0.1v0.4c-0.2,0-0.4,0.1-0.6,0.3
		c-0.1,0.1-0.1,0.3-0.1,0.6v7.4c0,0.3,0,0.4,0.1,0.6c0.1,0.1,0.3,0.1,0.6,0.3v0.4c-0.4,0-0.7-0.1-1-0.1h-1.8
		C641,375.3,640.8,375.4,640.5,375.5z M647,375.5c-0.7-1.3-1.5-2.4-2.1-3.2c-0.4-0.7-0.9-1.3-1.5-1.9l2.8-3.5c0-0.1,0.1-0.1,0.1-0.3
		v-0.3c0-0.1,0-0.1-0.1-0.3c-0.1,0-0.1-0.1-0.4-0.1v-0.3c0.4,0,0.7,0.1,1,0.1h0.6c0.5,0,1.1,0,1.6-0.1h0.1v0.3
		c-0.3,0-0.4,0.1-0.6,0.1l-0.4,0.4l-2.7,3.4c0.3,0.4,0.7,0.9,1.2,1.5c0.4,0.6,1,1.6,2.1,2.9c0.1,0.2,0.3,0.4,0.4,0.6
		c0.2,0.1,0.4,0.2,0.6,0.1v0.4c-0.4,0-0.7-0.1-1-0.1h-1.2C647.6,375.3,647.3,375.3,647,375.5z"/>
	<path class="st0" d="M650.1,365.6h7.7v1.3c0,0.4,0,0.8,0.1,1.2h-0.3c0-0.3-0.1-0.6-0.3-0.9c-0.1-0.1-0.6-0.1-1.2-0.1h-3.1v2.7h1.9
		c0.4,0,0.6,0,0.7-0.1c0.1-0.1,0.1-0.3,0.3-0.6h0.3v2.9H656c0-0.3-0.1-0.4-0.1-0.6c-0.2-0.1-0.5-0.2-0.7-0.1h-1.9v3.1h3.4
		c0.4,0,0.8-0.1,1.2-0.3c0.2-0.4,0.4-0.8,0.4-1.2h0.3c0,0.6-0.1,1-0.1,1.6c0,0.6-0.1,0.9-0.1,1.3h-8v-0.4c0.2,0,0.4-0.1,0.6-0.3
		c0.1-0.1,0.1-0.3,0.1-0.6V367c0-0.3,0-0.4-0.1-0.6c-0.1-0.1-0.3-0.1-0.6-0.1L650.1,365.6L650.1,365.6z"/>
	<path class="st0" d="M659.3,365.6h4.3c1.1-0.1,2.1,0.1,3.1,0.6c0.6,0.5,1,1.3,1,2.1c0.1,0.7-0.2,1.3-0.7,1.8
		c-0.5,0.5-1.2,0.9-1.9,1c0.4,0.6,0.9,1.3,1.5,2.2c0.7,1.2,1.3,1.8,1.8,1.8h0.1v0.4c-0.3,0-0.6-0.1-0.9-0.1h-0.6
		c-0.4,0-0.9,0-1.3,0.1h-0.1c-0.6-1.1-1.2-2.1-1.9-3.1c-0.4-0.5-0.8-1-1-1.6v-0.1h0.3c0.7,0,1.4-0.2,1.9-0.6
		c0.5-0.3,0.7-0.9,0.7-1.5c0.1-0.5-0.2-1-0.6-1.3c-0.5-0.3-1-0.5-1.6-0.4h-1v7.4c0,0.3,0,0.4,0.1,0.6c0.1,0.1,0.3,0.1,0.6,0.3v0.4
		c-0.4,0-0.7-0.1-1-0.1h-1.8c-0.4,0-0.7,0-1,0.1V375c0.2,0,0.4-0.1,0.6-0.3c0.1-0.1,0.1-0.3,0.1-0.6v-7.4c0-0.3,0-0.4-0.1-0.6
		c-0.1-0.1-0.3-0.1-0.6-0.1L659.3,365.6L659.3,365.6z"/>
	<path class="st0" d="M668.8,365.6h4.3c1.1-0.1,2.1,0.1,3.1,0.6c0.6,0.5,1,1.3,1,2.1c0.1,0.7-0.2,1.3-0.7,1.8
		c-0.5,0.5-1.2,0.9-1.9,1c0.4,0.6,0.9,1.3,1.5,2.2c0.7,1.2,1.3,1.8,1.8,1.8h0.1v0.4c-0.3,0-0.6-0.1-0.9-0.1h-0.6
		c-0.4,0-0.9,0-1.3,0.1H675c-0.6-1.1-1.2-2.1-1.9-3.1c-0.4-0.5-0.8-1-1-1.6v-0.1h0.3c0.7,0,1.4-0.2,1.9-0.6c0.5-0.3,0.7-0.9,0.7-1.5
		c0.1-0.5-0.2-1-0.6-1.3c-0.5-0.3-1-0.5-1.6-0.4h-1v7.4c0,0.3,0,0.4,0.1,0.6c0.1,0.1,0.3,0.1,0.6,0.3v0.4c-0.4,0-0.7-0.1-1-0.1h-1.8
		c-0.4,0-0.7,0-1,0.1V375c0.2,0,0.4-0.1,0.6-0.3c0.1-0.1,0.1-0.3,0.1-0.6v-7.4c0-0.3,0-0.4-0.1-0.6c-0.1-0.1-0.3-0.1-0.6-0.1
		L668.8,365.6L668.8,365.6z"/>
	<path class="st0" d="M679,375.5V375c0.2,0,0.5-0.1,0.7-0.1c0.1-0.2,0.2-0.5,0.1-0.7v-2.2l-2.7-5.5l-0.4-0.4
		c-0.1-0.1-0.3-0.1-0.6-0.1v-0.4c0.3,0,0.6,0,0.9,0.1h1.9c0.3,0,0.6,0,0.9-0.1v0.4c-0.1,0-0.3,0.1-0.4,0.1s-0.1,0.1-0.1,0.3v0.3
		l1.8,3.8l1.6-3.7v-0.3c0-0.1,0-0.3-0.1-0.3s-0.3-0.1-0.6-0.1v-0.6h2.9v0.4c-0.1,0-0.4,0.1-0.6,0.1c-0.2,0.1-0.3,0.4-0.3,0.6
		l-2.5,5.3v2.1c0,0.3,0,0.5,0.1,0.7c0.1,0.1,0.3,0.1,0.7,0.3v0.4c-0.3,0-0.6-0.1-0.9-0.1h-2.1C679.6,375.3,679.3,375.3,679,375.5z"
		/>
	<path class="st0" d="M689.9,365.6h7.7v1.3c0,0.4,0,0.8,0.1,1.2h-0.3c0-0.3-0.1-0.6-0.3-0.9c-0.1-0.1-0.6-0.1-1.2-0.1h-3.1v2.7h1.9
		c0.4,0,0.6,0,0.7-0.1c0.1-0.1,0.1-0.3,0.3-0.6h0.3v2.9h-0.3c0-0.3-0.1-0.4-0.1-0.6c-0.2-0.1-0.5-0.2-0.7-0.1H693v3.1h3.4
		c0.4,0,0.8-0.1,1.2-0.3c0.2-0.4,0.4-0.8,0.4-1.2h0.3c0,0.6-0.1,1-0.1,1.6c0,0.6-0.1,0.9-0.1,1.3h-8v-0.4c0.2,0,0.4-0.1,0.6-0.3
		c0.1-0.1,0.1-0.3,0.1-0.6V367c0-0.3,0-0.4-0.1-0.6c-0.1-0.1-0.3-0.1-0.6-0.1L689.9,365.6L689.9,365.6z"/>
	<path class="st0" d="M698.9,365.6h3.5c0.7,0,1.4,0,2.1,0.1c0.5,0.1,1,0.2,1.5,0.4c0.8,0.3,1.5,0.9,1.9,1.6c0.5,0.8,0.7,1.7,0.7,2.7
		c0.1,1.4-0.5,2.8-1.6,3.7c-1.4,1-3,1.4-4.7,1.3h-3.4V375c0.2,0,0.4-0.1,0.6-0.3c0.1-0.1,0.1-0.3,0.1-0.6v-7.4c0-0.3,0-0.4-0.1-0.6
		c-0.1-0.1-0.3-0.1-0.6-0.1L698.9,365.6L698.9,365.6z M701.9,366.8v7.2h0.4c1.1,0.1,2.1-0.2,2.9-0.9c1.4-1.6,1.4-3.9,0-5.5
		c-0.8-0.6-1.9-1-2.9-0.9L701.9,366.8L701.9,366.8z"/>
	<path class="st0" d="M709.7,365.4c0.3,0,0.6,0.1,0.9,0.1h1.8c0.3,0,0.6,0,0.9-0.1v0.4c-0.2,0-0.4,0.1-0.6,0.3
		c-0.1,0.1-0.1,0.3-0.1,0.6v4.6c-0.1,0.8,0.1,1.6,0.4,2.4c0.8,0.8,2.1,0.8,2.9,0c0.4-0.7,0.5-1.5,0.4-2.4v-4.6c0-0.3,0-0.4-0.1-0.6
		c-0.1-0.1-0.3-0.1-0.6-0.3v-0.3c0.3,0,0.6,0.1,0.9,0.1h1.8c0.3,0,0.6,0,0.9-0.1v0.4c-0.2,0-0.4,0.1-0.6,0.3
		c-0.1,0.1-0.1,0.3-0.1,0.6v4.6c0.1,1.2-0.2,2.4-0.9,3.4c-0.9,0.7-2.1,1-3.2,0.9c-1.2,0.1-2.3-0.2-3.2-0.9c-0.7-1-1-2.2-0.9-3.4
		v-4.6c0-0.3,0-0.4-0.1-0.6c-0.1-0.1-0.3-0.1-0.6-0.3L709.7,365.4L709.7,365.4z"/>
	<path class="st0" d="M728.4,365.9v2.8h-0.3c-0.1-0.6-0.4-1.1-0.9-1.5c-0.5-0.4-1-0.6-1.6-0.6c-0.8,0-1.6,0.3-2.2,0.9
		c-0.6,0.7-0.9,1.6-0.9,2.5c-0.1,1,0.3,2.1,1,2.8c0.6,0.8,1.5,1.2,2.5,1.2c0.5,0,0.9-0.1,1.3-0.3c0.5-0.2,0.9-0.4,1.3-0.7l-0.1,1.6
		c-0.4,0.3-0.9,0.6-1.5,0.7c-1.1,0.4-2.4,0.4-3.5,0c-0.6-0.1-1.1-0.5-1.5-0.9c-0.6-0.5-1.1-1.1-1.3-1.8c-0.3-0.7-0.4-1.5-0.4-2.2
		c0-1.4,0.5-2.7,1.5-3.7c1.1-1,2.5-1.6,4-1.5c0.4,0,0.9,0,1.3,0.1C727.6,365.4,728,365.5,728.4,365.9z"/>
	<path class="st0" d="M732.4,365.4c0.3,0,0.5,0,0.7,0.1h1.5c0.3,0,0.5,0,0.7-0.1c0.1,0.2,0.2,0.4,0.1,0.6c0,0.1,0.1,0.3,0.1,0.4
		l2.8,7.4c0.1,0.3,0.2,0.5,0.4,0.7c0.1,0.1,0.3,0.1,0.6,0.3v0.4c-0.3,0-0.6-0.1-0.9-0.1h-1.8c-0.4,0-0.7,0-1,0.1v-0.4
		c0.3,0,0.4-0.1,0.6-0.1c0.1-0.1,0.1-0.1,0.1-0.3v-0.3l-0.6-1.9h-3.1l-0.6,1.6v0.4c0,0.3,0.2,0.5,0.4,0.6c0,0,0.1,0,0.1,0v0.4
		c-0.3,0-0.6-0.1-0.9-0.1h-1.5c-0.3,0-0.5,0-0.7,0.1v-0.4c0.3,0,0.6-0.4,0.9-1c0-0.1,0-0.1,0.1-0.1l2.5-7.1c0-0.1,0-0.1,0.1-0.3
		v-0.1c0-0.1,0-0.1-0.1-0.3c-0.1,0-0.3-0.1-0.4-0.1L732.4,365.4L732.4,365.4z M734,367.6l-1,3.4h2.2L734,367.6z"/>
	<path class="st0" d="M739,365.6h8.3c0,0.5,0,1.1,0.1,1.6c0,0.4,0.1,0.9,0.1,1.3h-0.3c-0.1-0.5-0.3-0.9-0.6-1.3
		c-0.3-0.3-0.7-0.3-1.3-0.3h-1.2v6.6c0,0.4,0.1,0.8,0.3,1.2c0.2,0.2,0.6,0.3,0.9,0.3v0.4c-0.4,0-0.9-0.1-1.2-0.1h-2.1
		c-0.4,0-0.8,0-1.2,0.1V375c0.3,0,0.6-0.1,0.9-0.3c0.2-0.4,0.3-0.8,0.3-1.2v-6.6h-1.2c-0.5,0-0.9,0.1-1.3,0.3
		c-0.3,0.4-0.5,0.8-0.6,1.3h-0.3c0-0.4,0.1-0.9,0.1-1.3C739,366.7,739,366.1,739,365.6z"/>
	<path class="st0" d="M748.3,365.4c0.3,0,0.6,0.1,0.9,0.1h1.8c0.3,0,0.6,0,0.9-0.1v0.4c-0.2,0-0.4,0.1-0.6,0.3
		c-0.1,0.1-0.1,0.3-0.1,0.6v7.4c0,0.3,0,0.4,0.1,0.6c0.1,0.1,0.3,0.1,0.6,0.3v0.4c-0.4,0-0.7-0.1-1-0.1h-1.8c-0.4,0-0.7,0-1,0.1V375
		c0.2,0,0.4-0.1,0.6-0.3c0.1-0.1,0.1-0.3,0.1-0.6v-7.4c0-0.3,0-0.4-0.1-0.6c-0.1-0.1-0.3-0.1-0.6-0.3L748.3,365.4L748.3,365.4z"/>
	<path class="st0" d="M753,370.3c-0.2-2.5,1.7-4.7,4.3-4.9c0.2,0,0.4,0,0.6,0c0.6,0,1.2,0.1,1.8,0.3c0.5,0.2,1,0.5,1.5,0.9
		c0.6,0.5,1.1,1.1,1.3,1.8c0.3,0.7,0.4,1.5,0.4,2.2c0,1.4-0.4,2.7-1.3,3.7c-1,1-2.3,1.5-3.7,1.5c-0.6,0-1.2-0.1-1.8-0.3
		c-0.5-0.2-1-0.5-1.5-0.9c-0.6-0.5-1-1.1-1.3-1.8C753.2,372,753.1,371.1,753,370.3z M757.7,366.6c-0.7,0-1.4,0.3-1.8,0.9
		c-0.4,0.7-0.6,1.4-0.6,2.2c0,1.1,0.2,2.2,0.7,3.2c0.4,0.8,1.2,1.3,2.1,1.3c0.7,0,1.4-0.3,1.8-0.9c0.5-0.7,0.7-1.5,0.6-2.4
		c0-1.1-0.2-2.2-0.7-3.2C759.4,367,758.6,366.6,757.7,366.6z"/>
	<path class="st0" d="M763.9,375.3v-0.4c0.2,0,0.4-0.1,0.6-0.3c0.1-0.1,0.1-0.4,0.1-1v-6.6c0-0.4,0-0.6-0.1-0.7
		c-0.1-0.1-0.3-0.1-0.6-0.3v-0.4c0.3,0,0.5,0,0.7,0.1h1.8c0.3,0,0.6,0,0.9-0.1l4.4,6.8v-5.3c0-0.4,0-0.7-0.1-0.9
		c-0.2-0.2-0.5-0.3-0.7-0.3v-0.3c0.3,0,0.6,0,0.9,0.1h1.5c0.3,0,0.5,0,0.7-0.1v0.3c-0.2,0-0.4,0.1-0.6,0.3c-0.1,0.2-0.2,0.5-0.1,0.7
		v8.6h-1.6l-5.3-8v6.5c0,0.3,0.1,0.6,0.1,0.9c0.2,0.2,0.6,0.3,0.9,0.3v0.4c-0.3,0-0.6-0.1-0.9-0.1H763.9z"/>
	<path class="st0" d="M630.2,384.9c0.3,0,0.5,0,0.7,0.1c0.3,0.1,0.4,0,0.7,0h0.7c0.3,0,0.5,0,0.7-0.1c0.1,0.2,0.2,0.4,0.1,0.6
		c0,0.1,0.1,0.3,0.1,0.4l2.8,7.4c0.1,0.3,0.2,0.5,0.4,0.7c0.1,0.1,0.3,0.1,0.6,0.3v0.4c-0.3,0-0.6-0.1-0.9-0.1h-1.8
		c-0.4,0-0.7,0-1,0.1v-0.4c0.3,0,0.4-0.1,0.6-0.1c0.1-0.1,0.1-0.1,0.1-0.3v-0.3l-0.6-1.9h-3.1l-0.6,1.6v0.4c0,0.3,0.2,0.5,0.4,0.6
		c0,0,0.1,0,0.1,0v0.4c-0.3,0-0.6-0.1-0.9-0.1h-1.5c-0.3,0-0.5,0-0.7,0.1v-0.4c0.3,0,0.6-0.4,0.9-1c0-0.1,0-0.1,0.1-0.1l2.5-7.1
		c0-0.1,0-0.1,0.1-0.3v-0.1c0-0.1,0-0.1-0.1-0.3c-0.1,0-0.3-0.1-0.4-0.1L630.2,384.9L630.2,384.9z M631.8,387.1l-1,3.4h2.2
		L631.8,387.1z"/>
	<path class="st0" d="M637.4,394.8v-0.4c0.2,0,0.4-0.1,0.6-0.3c0.1-0.1,0.1-0.4,0.1-1v-6.9c0-0.4,0-0.6-0.1-0.7
		c-0.1-0.1-0.3-0.1-0.6-0.3v-0.4c0.3,0,0.5,0,0.7,0.1h1.8c0.3,0,0.6,0,0.9-0.1l4.4,6.8v-5.3c0-0.4,0-0.7-0.1-0.9
		c-0.2-0.2-0.5-0.3-0.7-0.3v-0.3c0.3,0,0.6,0,0.9,0.1h1.5c0.3,0,0.5,0,0.7-0.1v0.3c-0.2,0-0.4,0.1-0.6,0.3c-0.1,0.2-0.2,0.5-0.1,0.7
		v8.6h-1.6l-5.3-8v6.5c0,0.3,0.1,0.6,0.1,0.9c0.2,0.2,0.6,0.3,0.9,0.3v0.4c-0.3,0-0.6-0.1-0.9-0.1h-1.5
		C638.2,394.7,637.8,394.8,637.4,394.8z"/>
	<path class="st0" d="M648.2,385h3.5c0.7,0,1.4,0,2.1,0.1c0.5,0.1,1,0.2,1.5,0.4c0.8,0.3,1.5,0.9,1.9,1.6c0.5,0.8,0.7,1.7,0.7,2.7
		c0.1,1.4-0.5,2.8-1.6,3.7c-1.4,1-3,1.4-4.7,1.3h-3.4v-0.4c0.2,0,0.4-0.1,0.6-0.3c0.1-0.1,0.1-0.3,0.1-0.6v-7.4c0-0.3,0-0.4-0.1-0.6
		s-0.3-0.1-0.6-0.1V385z M651.2,386.2v7.2h0.4c1.1,0.1,2.1-0.2,2.9-0.9c1.4-1.6,1.4-3.9,0-5.5c-0.8-0.6-1.9-1-2.9-0.9H651.2z"/>
	<path class="st0" d="M663.2,385h8.3c0,0.5,0,1.1,0.1,1.6c0,0.4,0.1,0.9,0.1,1.3h-0.3c-0.1-0.5-0.3-0.9-0.6-1.3
		c-0.3-0.3-0.7-0.3-1.3-0.3h-1.2v6.6c0,0.4,0.1,0.8,0.3,1.2c0.2,0.2,0.6,0.3,0.9,0.3v0.4c-0.4,0-0.9-0.1-1.2-0.1h-2.1
		c-0.4,0-0.8,0-1.2,0.1v-0.4c0.3,0,0.6-0.1,0.9-0.3c0.2-0.4,0.3-0.8,0.3-1.2v-6.6h-1.2c-0.5,0-0.9,0.1-1.3,0.3
		c-0.3,0.4-0.5,0.8-0.6,1.3h-0.3c0-0.4,0.1-0.9,0.1-1.3C663.1,386.1,663.1,385.6,663.2,385z"/>
	<path class="st0" d="M672.4,385h4.3c1.1-0.1,2.1,0.1,3.1,0.6c0.6,0.5,1,1.3,1,2.1c0.1,0.7-0.2,1.3-0.7,1.8c-0.5,0.5-1.2,0.9-1.9,1
		c0.4,0.6,0.9,1.3,1.5,2.2c0.7,1.2,1.3,1.8,1.8,1.8h0.1v0.4c-0.3,0-0.6-0.1-0.9-0.1H680c-0.4,0-0.9,0-1.3,0.1h-0.1
		c-0.6-1.1-1.2-2.1-1.9-3.1c-0.4-0.5-0.8-1-1-1.6V390h0.3c0.7,0,1.4-0.2,1.9-0.6c0.5-0.3,0.7-0.9,0.7-1.5c0.1-0.5-0.2-1-0.6-1.3
		c-0.5-0.3-1-0.5-1.6-0.4h-1v7.4c0,0.3,0,0.4,0.1,0.6c0.1,0.1,0.3,0.1,0.6,0.3v0.4c-0.4,0-0.7-0.1-1-0.1h-1.8c-0.4,0-0.7,0-1,0.1
		v-0.4c0.2,0,0.4-0.1,0.6-0.3c0.1-0.1,0.1-0.3,0.1-0.6v-7.4c0-0.3,0-0.4-0.1-0.6c-0.1-0.1-0.3-0.1-0.6-0.1L672.4,385L672.4,385z"/>
	<path class="st0" d="M683.9,384.9c0.3,0,0.5,0,0.7,0.1h1.5c0.3,0,0.5,0,0.7-0.1c0.1,0.2,0.2,0.4,0.1,0.6c0,0.1,0.1,0.3,0.1,0.4
		l2.8,7.4c0.1,0.3,0.2,0.5,0.4,0.7c0.1,0.1,0.3,0.1,0.6,0.3v0.4c-0.3,0-0.6-0.1-0.9-0.1h-1.8c-0.4,0-0.7,0-1,0.1v-0.4
		c0.3,0,0.4-0.1,0.6-0.1c0.1-0.1,0.1-0.1,0.1-0.3v-0.3l-0.6-1.9h-3.1l-0.6,1.6v0.4c0,0.3,0.2,0.5,0.4,0.6c0,0,0.1,0,0.1,0v0.4
		c-0.3,0-0.6-0.1-0.9-0.1H682c-0.3,0-0.5,0-0.7,0.1v-0.4c0.3,0,0.6-0.4,0.9-1c0-0.1,0-0.1,0.1-0.1l2.5-7.1c0-0.1,0-0.1,0.1-0.3v-0.1
		c0-0.1,0-0.1-0.1-0.3c-0.1,0-0.3-0.1-0.4-0.1L683.9,384.9L683.9,384.9z M685.4,387.1l-1,3.4h2.2L685.4,387.1z"/>
	<path class="st0" d="M691,384.9c0.3,0,0.6,0.1,0.9,0.1h1.8c0.3,0,0.6,0,0.9-0.1v0.4c-0.2,0-0.4,0.1-0.6,0.3
		c-0.1,0.1-0.1,0.3-0.1,0.6v7.4c0,0.3,0,0.4,0.1,0.6c0.1,0.1,0.3,0.1,0.6,0.3v0.4c-0.4,0-0.7-0.1-1-0.1h-1.8c-0.4,0-0.7,0-1,0.1
		v-0.4c0.2,0,0.4-0.1,0.6-0.3c0.1-0.1,0.1-0.3,0.1-0.6v-7.4c0-0.3,0-0.4-0.1-0.6c-0.1-0.1-0.3-0.1-0.6-0.3L691,384.9L691,384.9z"/>
	<path class="st0" d="M695.7,394.8v-0.4c0.2,0,0.4-0.1,0.6-0.3c0.1-0.1,0.1-0.4,0.1-1v-6.9c0-0.4,0-0.6-0.1-0.7
		c-0.1-0.1-0.3-0.1-0.6-0.3v-0.4c0.3,0,0.5,0,0.7,0.1h1.8c0.3,0,0.6,0,0.9-0.1l4.4,6.8v-5.3c0-0.4,0-0.7-0.1-0.9
		c-0.2-0.2-0.5-0.3-0.7-0.3v-0.3c0.3,0,0.6,0,0.9,0.1h1.5c0.3,0,0.5,0,0.7-0.1v0.3c-0.2,0-0.4,0.1-0.6,0.3c-0.1,0.2-0.2,0.5-0.1,0.7
		v8.6h-1.8l-5.3-8v6.5c0,0.3,0.1,0.6,0.1,0.9c0.2,0.2,0.6,0.3,0.9,0.3v0.4c-0.3,0-0.6-0.1-0.9-0.1h-1.5
		C696.3,394.7,696,394.8,695.7,394.8z"/>
	<path class="st0" d="M706.4,384.9c0.3,0,0.6,0.1,0.9,0.1h1.8c0.3,0,0.6,0,0.9-0.1v0.4c-0.2,0-0.4,0.1-0.6,0.3
		c-0.1,0.1-0.1,0.3-0.1,0.6v7.4c0,0.3,0,0.4,0.1,0.6c0.1,0.1,0.3,0.1,0.6,0.3v0.4c-0.4,0-0.7-0.1-1-0.1h-1.8c-0.4,0-0.7,0-1,0.1
		v-0.4c0.2,0,0.4-0.1,0.6-0.3c0.1-0.1,0.1-0.3,0.1-0.6v-7.4c0-0.3,0-0.4-0.1-0.6c-0.1-0.1-0.3-0.1-0.6-0.3L706.4,384.9z"/>
	<path class="st0" d="M711.2,394.8v-0.4c0.2,0,0.4-0.1,0.6-0.3c0.1-0.1,0.1-0.4,0.1-1v-6.9c0-0.4,0-0.6-0.1-0.7
		c-0.1-0.1-0.3-0.1-0.6-0.3v-0.4c0.3,0,0.5,0,0.7,0.1h1.8c0.3,0,0.6,0,0.9-0.1l4.4,6.8v-5.3c0-0.4,0-0.7-0.1-0.9
		c-0.2-0.2-0.5-0.3-0.7-0.3v-0.3c0.3,0,0.6,0,0.9,0.1h1.5c0.3,0,0.5,0,0.7-0.1v0.3c-0.2,0-0.4,0.1-0.6,0.3c-0.1,0.2-0.2,0.5-0.1,0.7
		v8.6h-1.6l-5.3-8v6.5c0,0.3,0.1,0.6,0.1,0.9c0.2,0.2,0.6,0.3,0.9,0.3v0.4c-0.3,0-0.6-0.1-0.9-0.1h-1.5
		C711.9,394.7,711.5,394.8,711.2,394.8z"/>
	<path class="st0" d="M730.5,385.3v2.8H730c-0.1-0.6-0.4-1.1-0.9-1.5c-0.5-0.4-1.1-0.6-1.8-0.6c-0.9-0.1-1.8,0.3-2.4,1
		c-0.6,0.7-0.9,1.7-0.9,2.7c0,1,0.3,2,0.9,2.8c0.5,0.7,1.2,1.1,2.1,1.2c0.9,0.1,1.6-0.5,1.8-1.3c0-0.1,0-0.3,0-0.4v-0.6
		c0-0.3-0.1-0.4-0.1-0.6c-0.2-0.1-0.5-0.2-0.7-0.1v-0.4c0.3,0,0.6,0.1,0.9,0.1h2.2c0.3,0,0.6,0,0.9-0.1v0.4c-0.3,0-0.5,0.1-0.7,0.3
		c-0.1,0.2-0.2,0.5-0.1,0.7v3.2h-0.9l-0.3-1c-0.3,0.5-0.8,0.8-1.3,0.9c-0.5,0.2-1.1,0.3-1.6,0.3c-1.3,0-2.5-0.5-3.4-1.5
		c-1.8-2.1-1.8-5.3,0.1-7.4c1.1-1,2.5-1.6,4-1.5c0.5,0,1.1,0,1.6,0.1C729.7,385,730.1,385.1,730.5,385.3z"/>
	<path class="st0" d="M736.7,385h4.6c1-0.1,1.9,0.1,2.8,0.6c0.6,0.4,0.9,1.1,0.9,1.8c0,0.6-0.2,1.1-0.6,1.5c-0.4,0.5-1,0.8-1.6,0.9
		c0.7,0,1.5,0.3,2.1,0.7c0.5,0.5,0.7,1.1,0.7,1.8c0,0.9-0.4,1.6-1.2,2.1c-1,0.5-2.1,0.8-3.2,0.7h-4.4v-0.4c0.2,0,0.4-0.1,0.6-0.3
		c0.1-0.1,0.1-0.3,0.1-0.6v-7.4c0-0.3,0-0.4-0.1-0.6s-0.3-0.1-0.6-0.1V385L736.7,385z M739.6,386.2v2.9h1c0.5,0,1.1-0.1,1.5-0.4
		c0.3-0.2,0.5-0.6,0.6-1c0-0.4-0.1-0.8-0.4-1c-0.3-0.3-0.7-0.3-1.5-0.3L739.6,386.2L739.6,386.2z M739.6,390.3v3.2h1.5
		c0.6,0,1.1-0.1,1.6-0.4c0.7-0.5,0.8-1.4,0.3-2.1c-0.1-0.1-0.2-0.2-0.3-0.3c-0.5-0.3-1-0.5-1.6-0.4L739.6,390.3z"/>
	<path class="st0" d="M746.8,389.8c-0.2-2.5,1.7-4.7,4.3-4.9c0.2,0,0.4,0,0.6,0c0.6,0,1.2,0.1,1.8,0.3c0.5,0.2,1,0.5,1.5,0.9
		c0.6,0.5,1.1,1.1,1.3,1.8c0.3,0.7,0.4,1.5,0.4,2.2c0,1.4-0.4,2.7-1.3,3.7c-1,1-2.3,1.5-3.7,1.5c-0.6,0-1.2-0.1-1.8-0.3
		c-0.5-0.2-1-0.5-1.5-0.9c-0.6-0.5-1-1.1-1.3-1.8C747,391.4,746.9,390.6,746.8,389.8z M751.6,386.1c-0.7,0-1.4,0.3-1.8,0.9
		c-0.4,0.7-0.6,1.4-0.6,2.2c0,1.1,0.2,2.2,0.7,3.2c0.4,0.8,1.2,1.3,2.1,1.3c0.7,0,1.4-0.3,1.8-0.9c0.5-0.7,0.7-1.5,0.6-2.4
		c0-1.1-0.2-2.2-0.7-3.2C753.2,386.5,752.4,386,751.6,386.1L751.6,386.1z"/>
	<path class="st0" d="M760.3,384.9c0.3,0,0.5,0,0.7,0.1h1.5c0.3,0,0.5,0,0.7-0.1c0.1,0.2,0.2,0.4,0.1,0.6c0,0.1,0.1,0.3,0.1,0.4
		l2.8,7.4c0.1,0.3,0.2,0.5,0.4,0.7c0.1,0.1,0.3,0.1,0.6,0.3v0.4c-0.3,0-0.6-0.1-0.9-0.1h-1.8c-0.4,0-0.7,0-1,0.1v-0.4
		c0.3,0,0.4-0.1,0.6-0.1c0.1-0.1,0.1-0.1,0.1-0.3v-0.3l-0.6-1.9h-3.5l-0.6,1.6v0.4c0,0.3,0.2,0.5,0.4,0.6c0,0,0.1,0,0.1,0v0.4
		c-0.3,0-0.6-0.1-0.9-0.1h-1.5c-0.3,0-0.5,0-0.7,0.1v-0.4c0.3,0,0.6-0.4,0.9-1c0-0.1,0-0.1,0.1-0.1l2.5-7.1c0-0.1,0-0.1,0.1-0.3
		v-0.1c0-0.1,0-0.1-0.1-0.3c-0.1,0-0.3-0.1-0.4-0.1V384.9L760.3,384.9z M761.7,387.1l-1,3.4h2.2L761.7,387.1z"/>
	<path class="st0" d="M767.3,385h4.3c1.1-0.1,2.1,0.1,3.1,0.6c0.6,0.5,1,1.3,1,2.1c0.1,0.7-0.2,1.3-0.7,1.8c-0.5,0.5-1.2,0.9-1.9,1
		c0.4,0.6,0.9,1.3,1.5,2.2c0.7,1.2,1.3,1.8,1.8,1.8h0.1v0.4c-0.3,0-0.6-0.1-0.9-0.1H775c-0.4,0-0.9,0-1.3,0.1h-0.1
		c-0.6-1.1-1.2-2.1-1.9-3.1c-0.4-0.5-0.8-1-1-1.6V390h0.3c0.7,0,1.4-0.2,1.9-0.6c0.5-0.3,0.7-0.9,0.7-1.5c0.1-0.5-0.2-1-0.6-1.3
		c-0.5-0.3-1-0.5-1.6-0.4h-1v7.4c0,0.3,0,0.4,0.1,0.6c0.1,0.1,0.3,0.1,0.6,0.3v0.4c-0.4,0-0.7-0.1-1-0.1h-1.8c-0.4,0-0.7,0-1,0.1
		v-0.4c0.2,0,0.4-0.1,0.6-0.3c0.1-0.1,0.1-0.3,0.1-0.6v-7.4c0-0.3,0-0.4-0.1-0.6c-0.1-0.1-0.3-0.1-0.6-0.1L767.3,385L767.3,385z"/>
	<path class="st0" d="M776.9,385h3.5c0.7,0,1.4,0,2.1,0.1c0.5,0.1,1,0.2,1.5,0.4c0.8,0.3,1.5,0.9,1.9,1.6c0.5,0.8,0.7,1.7,0.7,2.7
		c0.1,1.4-0.5,2.8-1.6,3.7c-1.4,1-3,1.4-4.7,1.3h-3.4v-0.4c0.2,0,0.4-0.1,0.6-0.3c0.1-0.1,0.1-0.3,0.1-0.6v-7.4c0-0.3,0-0.4-0.1-0.6
		s-0.3-0.1-0.6-0.1L776.9,385L776.9,385z M779.9,386.2v7.2h0.4c1.1,0.1,2.1-0.2,2.9-0.9c1.4-1.6,1.4-3.9,0-5.5
		c-0.8-0.6-1.9-1-2.9-0.9H779.9z"/>
	<path class="st0" d="M663.7,238.8c0.2-0.9,0.4-1.9,0.7-2.8c0.3-0.7,0.6-1.4,1-2.1c0.4-0.6,0.9-1.3,1.3-1.9c0.5-0.6,0.9-1.1,1.5-1.6
		c0.4-0.4,0.7-0.6,0.9-0.9c0.4-0.2,0.8-0.6,1-1c0.2-0.4,0.2-0.9,0.1-1.3c0-0.2-0.1-0.4-0.3-0.6l-0.4-0.6l-0.3-0.3
		c-0.5-0.5-1.3-0.6-1.9-0.3c-0.1,0-0.2,0.1-0.3,0.1c-2.5,2.2-4.7,4.8-6.3,7.7c-1.3,3.1-2,6.4-2.2,9.7V256c0,0.3,0,0.5,0.1,0.7
		c0.1,0.1,0.1,0.4,0.4,0.6c0.2,0.2,0.4,0.3,0.6,0.4c0.2,0.1,0.5,0.2,0.7,0.1h3.1v10.5c0,0.3,0.1,0.6,0.3,0.9l0.4,0.4l0.3,0.3
		c0.3,0.3,0.6,0.4,1,0.4c3,0.3,6.1,0.2,9.1-0.1c2-0.2,3.9-0.7,5.8-1.6c1.4-0.7,2.8-1.6,3.8-2.8c0.5-0.5,0.9-1,1.3-1.5
		c0.4-0.6,0.7-1,1.2-1.6c0.3-0.6,0.6-1.2,0.9-1.9c0.3-0.7,0.6-1.4,0.7-2.1c0.1-0.7,0.3-1.5,0.4-2.1c0.1-0.4,0.2-0.8,0.1-1.2
		c0-0.3-0.1-0.4-0.1-0.6c-0.1-0.1-0.1-0.3-0.3-0.4c-0.1-0.1-0.3-0.3-0.4-0.3c-0.2-0.1-0.4-0.2-0.6-0.1l-0.7-0.1h-0.6
		c-0.2,0-0.4,0.1-0.6,0.3l-0.4,0.4c-0.1,0.1-0.1,0.4-0.3,0.6c-0.4,1.8-0.9,3.4-1.3,4.7c-0.3,0.9-0.8,1.8-1.5,2.5
		c-0.6,0.7-1.4,1.3-2.2,1.8c-0.9,0.6-1.9,1-2.9,1.3c-2.8,0.8-5.7,1-8.6,0.7v-11.1c0-0.3,0-0.5-0.1-0.7c-0.1-0.1-0.1-0.4-0.4-0.6
		c-0.2-0.2-0.4-0.3-0.6-0.4c-0.2-0.1-0.5-0.2-0.7-0.1h-3.1v-10.5C663.3,241.5,663.4,240.1,663.7,238.8z"/>
	<path class="st0" d="M755.1,238.6c-0.3-1.3-0.4-2.2-0.7-3.2c-0.3-0.8-0.6-1.6-1-2.4c-0.4-0.7-0.9-1.5-1.5-2.4
		c-0.7-0.9-1.4-1.7-2.2-2.5c-0.7-0.9-1.6-1.8-2.1-2.2c-0.6-0.4-0.7-0.6-0.9-0.6c-0.3,0-0.4-0.1-0.7,0c-0.3,0-0.4,0.1-0.6,0.1
		c-0.1,0.1-0.4,0.3-0.6,0.4l-0.4,0.6c-0.4,0.5-0.5,1.2-0.3,1.8c0,0.1,0.1,0.3,0.1,0.4c0.1,0.1,0.1,0.3,0.3,0.3
		c1.4,1.3,2.8,2.7,4,4.3c1,1.2,1.7,2.6,2.1,4.1c0.5,1.9,0.9,3.8,1,5.8v10.5h-3.1c-0.3,0-0.5,0-0.7,0.1c-0.1,0.1-0.4,0.1-0.6,0.4
		c-0.2,0.2-0.3,0.4-0.4,0.6c-0.1,0.2-0.2,0.5-0.1,0.7v11.1c-1.1,0.1-2.3,0.2-3.4,0.1c-1,0-2.1-0.1-3.1-0.3c-0.9-0.1-1.8-0.4-2.5-0.6
		c-0.7-0.3-1.5-0.6-2.1-0.9c-0.6-0.3-1.2-0.7-1.8-1.2c-0.5-0.4-0.9-0.8-1.3-1.3c-0.4-0.5-0.8-1.1-1-1.8c-0.3-0.6-0.6-1.3-0.9-2.1
		c-0.2-0.6-0.3-1.3-0.4-1.9c-0.1-0.4-0.1-0.4-0.1-0.6c0-0.1-0.1-0.6-0.1-0.9c-0.1-0.2-0.3-0.4-0.4-0.6c-0.4-0.3-0.9-0.4-1.3-0.4
		l-0.7,0.1c-0.2,0-0.3,0-0.4,0.1c-0.1,0-0.3,0.1-0.4,0.3s-0.3,0.1-0.3,0.3c-0.3,0.4-0.4,0.9-0.4,1.3c0.1,1.1,0.3,2.2,0.6,3.2
		c0.3,1,0.7,2,1.2,2.9c0.5,0.9,1,1.7,1.6,2.5c0.6,0.8,1.3,1.5,2.1,2.1c0.7,0.6,1.6,1.2,2.5,1.8c0.9,0.4,1.9,0.9,2.9,1.3
		c1,0.3,2.2,0.6,3.5,0.9c1.4,0.2,2.7,0.3,4.1,0.3c1.5,0,2.9-0.1,3.8-0.1c0.9-0.1,1.3-0.1,1.6-0.4c0.3-0.1,0.5-0.3,0.6-0.6
		c0.2-0.3,0.4-0.6,0.6-0.9v-10.9h3.1c0.3,0,0.5,0,0.7-0.1c0.3-0.1,0.4-0.1,0.6-0.4c0.2-0.2,0.3-0.4,0.4-0.6c0.1-0.2,0.2-0.5,0.1-0.7
		v-13.3C755.5,241.4,755.2,240,755.1,238.6z"/>
	<path class="st1" d="M711.7,280.1v0.3c0.1,1.5,0.3,2.8,0.4,4c0.1,0.8,0.3,1.7,0.6,2.5c0.3,0.7,0.6,1.3,0.9,2.1
		c0.3,0.7,0.8,1.4,1.3,1.9c0.5,0.6,1,1.2,1.6,1.6l1.8,1.3c0.6,0.4,1.3,0.8,2.1,1c0.8,0.3,1.5,0.6,2.4,0.7c0.7,0.2,1.5,0.3,2.2,0.3
		h1.2c0.2,0,0.4-0.1,0.6-0.3c0.2-0.2,0.3-0.4,0.4-0.6c0.1-0.2,0.2-0.5,0.1-0.7l0.1-0.7v-0.7c0-0.2-0.1-0.4-0.3-0.6l-0.4-0.4
		c-0.1-0.1-0.4-0.1-0.7-0.3c-1.2-0.1-2.4-0.4-3.5-0.7c-0.8-0.2-1.6-0.5-2.2-1c-0.6-0.5-1.2-1-1.8-1.6c-0.6-0.7-1-1.4-1.3-2.2
		c-0.3-0.9-0.6-1.8-0.7-2.8c-0.2-1-0.3-2.1-0.3-3.1v-35.7c0.7,0.6,1.3,1.2,2.1,1.8c0.8,0.6,1.6,1.1,2.5,1.5c0.9,0.4,1.9,0.8,2.9,1
		c1.1,0.4,2.2,0.5,3.4,0.6c1.3,0.1,2.7,0.2,4,0.1c1.3,0,2.7-0.1,3.5-0.1c0.9-0.1,1.2-0.1,1.5-0.4c0.3-0.1,0.5-0.3,0.6-0.6
		c0.2-0.3,0.4-0.6,0.6-0.9v-10.9h3.1c0.3,0,0.5,0,0.7-0.1c0.1-0.1,0.4-0.1,0.6-0.4c0.2-0.2,0.3-0.4,0.4-0.6c0.1-0.2,0.2-0.5,0.1-0.7
		v-13c0-2.7-0.4-5.3-1.3-7.8c-0.9-2.5-2.3-4.8-4.1-6.8c-1.8-2-3.9-3.7-6.3-4.9c-2.4-1.2-5-2-7.7-2.2c-2.7-0.3-5.4-0.1-8,0.6
		c-2.6,0.7-5.1,1.9-7.2,3.5c-2.2-1.6-4.6-2.8-7.2-3.4c-2.6-0.7-5.3-0.9-8-0.6c-5.4,0.5-10.4,3-14,7.1c-1.8,2-3.2,4.3-4.1,6.8
		c-0.9,2.5-1.3,5.2-1.3,7.8v13c0,0.3,0,0.5,0.1,0.7c0.1,0.1,0.1,0.4,0.4,0.6c0.2,0.2,0.4,0.3,0.6,0.4c0.2,0.1,0.5,0.2,0.7,0.1h3.1
		v10.5c0,0.3,0.1,0.6,0.3,0.9l0.4,0.4c0.1,0.1,0.1,0.3,0.3,0.3c0.4,0.3,0.9,0.4,1.3,0.4c2.5,0.2,5,0.2,7.5,0.1
		c1.6-0.1,3.1-0.4,4.6-0.9c1.3-0.4,2.5-1,3.7-1.8c1.1-0.7,2.2-1.5,3.1-2.5v35.8c0,1-0.1,2.1-0.1,2.8c-0.1,0.7-0.3,1.3-0.4,1.9
		c-0.1,0.6-0.4,1.2-0.6,1.6l-0.9,1.3c-0.3,0.4-0.6,0.8-1,1.2c-0.3,0.4-0.7,0.7-1.2,0.9c-0.4,0.3-0.9,0.5-1.3,0.7
		c-0.6,0.1-1,0.4-1.6,0.6c-0.4,0.1-0.9,0.2-1.3,0.3h-0.6c-0.1,0-0.6,0-0.7,0.1c-0.2,0-0.4,0.1-0.6,0.3l-0.4,0.4
		c-0.3,0.3-0.4,0.8-0.3,1.2l0.1,0.7c0,0.3,0.1,0.4,0.1,0.6c0.1,0.1,0.3,0.4,0.4,0.6c0.2,0.2,0.4,0.3,0.6,0.3c0.1,0.1,0.4,0.1,1,0
		c0.7-0.1,1.5-0.3,2.2-0.4c0.9-0.2,1.8-0.4,2.7-0.7c0.7-0.3,1.3-0.6,1.9-0.9c0.6-0.3,1.1-0.7,1.6-1.2c0.6-0.5,1.1-1,1.5-1.6l1.3-1.8
		c0.4-0.6,0.8-1.3,1-2.1c0.3-0.7,0.4-1.5,0.7-2.4c0.1-0.9,0.3-2.1,0.4-2.8c0.1-0.7,0.1-1.4,0-2.1v-58.5c0.1-2.1,0.5-4.2,1.2-6.2
		c0.8-1.9,2-3.7,3.4-5.3c0.9,1.1,1.8,2.2,2.5,3.4c0.7,1.2,1.2,2.5,1.5,3.8c0.4,1.4,0.5,2.8,0.6,4.3L711.7,280.1L711.7,280.1z
		 M714.3,205.2c2.7-0.9,5.5-1.2,8.3-0.9c2.7,0.4,5.4,1.4,7.7,2.9c1.2,0.8,2.2,1.7,3.1,2.8c0.9,1,1.7,2.2,2.4,3.4
		c0.7,1.3,1.2,2.6,1.5,4c0.3,1.4,0.4,2.7,0.4,4.1v10.6h-3.1c-0.3,0-0.5,0-0.7,0.1c-0.1,0.1-0.4,0.1-0.6,0.4
		c-0.2,0.2-0.3,0.4-0.4,0.6c-0.1,0.2-0.2,0.5-0.1,0.7v11.1c-1.5,0.1-2.9,0.1-4.3,0.1c-1.2-0.1-2.5-0.3-3.7-0.6c-1-0.3-2-0.7-2.9-1.2
		c-0.8-0.4-1.6-1-2.2-1.6c-0.6-0.6-1.2-1.3-1.6-2.1c-0.4-0.9-0.9-1.9-1.2-2.5c-0.2-0.5-0.3-1.1-0.4-1.6c-0.1-0.4-0.1-1-0.3-1.5V222
		c-0.1-2.7-0.6-5.3-1.5-7.8c-1-2.5-2.4-4.7-4.1-6.8C711.4,206.4,712.8,205.6,714.3,205.2L714.3,205.2z M696.7,238.9
		c-0.6,1-1.3,1.9-2.1,2.8c-0.9,0.8-2,1.5-3.1,2.1c-1.4,0.6-2.8,1-4.3,1.2c-1.9,0.3-3.7,0.3-5.6,0.1v-11.1c0-0.3,0-0.5-0.1-0.7
		c-0.1-0.1-0.1-0.4-0.4-0.6c-0.2-0.2-0.4-0.3-0.6-0.4c-0.2-0.1-0.5-0.2-0.7-0.1h-3.1v-10.6c0.1-2.1,0.4-4.2,1-6.2
		c0.7-2,1.8-3.8,3.2-5.3c1.3-1.6,3-2.9,4.9-3.8c1.9-0.9,3.8-1.6,5.9-1.9c2.1-0.3,4.3-0.2,6.3,0.3c2.1,0.5,4,1.3,5.8,2.5
		c-1.7,2.1-3.1,4.3-4.1,6.8c-0.8,2.5-1.3,5.2-1.5,7.8v12.8c-0.1,0.2-0.1,0.5-0.1,0.7c0,0.2,0,0.3-0.1,0.4
		C697.7,236.8,697.3,237.9,696.7,238.9L696.7,238.9z"/>
	<rect x="590.6" y="249.8" class="st2" width="2.1" height="142.5"/>
	<path class="st2" d="M312.9,250.7h15.3l-18.8,22l20.5,24.4h-16L298,277h-0.1v20.1h-12.3v-46.4h12.3v19.1h0.1L312.9,250.7z"/>
	<path class="st2" d="M345.5,260.9v7.8h13.9v10.2h-13.9v8h14.6v10.2h-26.9v-46.4h26.9v10.2H345.5z"/>
	<path class="st2" d="M407.1,297.1h-15.3l-11.6-17.9H380v17.9h-12.3v-46.4h18.4c9.4,0,16.5,4.4,16.5,14.3c0,6.4-3.6,11.9-10.4,13.1
		L407.1,297.1z M380,271.5h1.2c4,0,8.5-0.7,8.5-5.8s-4.5-5.8-8.5-5.8H380V271.5z"/>
	<path class="st2" d="M449.8,297.1h-15.3l-11.6-17.9h-0.1v17.9h-12.3v-46.4h18.4c9.4,0,16.5,4.4,16.5,14.3c0,6.4-3.6,11.9-10.4,13.1
		L449.8,297.1z M422.7,271.5h1.2c4,0,8.5-0.7,8.5-5.8s-4.5-5.8-8.5-5.8h-1.2V271.5z"/>
	<path class="st2" d="M445.4,250.7h14.8l8.9,12.6l8.9-12.6h14.8l-17.5,24.1v22.3H463v-22.3L445.4,250.7z"/>
	<path class="st2" d="M319.4,323.7c-2.6-3.3-6.6-5.2-10.8-5.1c-7.5,0-12.6,5.7-12.6,12.9c0,7.3,5.1,12.6,12.8,12.6
		c4.1-0.1,7.9-1.8,10.6-4.9v14.5c-4.1,1.2-7,2.1-10.9,2.1c-6.6,0-12.9-2.4-17.8-6.8c-5-4.4-7.8-10.8-7.6-17.5c0-6.4,2.5-12.5,7-17
		c4.8-4.8,11.2-7.5,18-7.5c3.8,0,7.6,0.8,11.2,2.3L319.4,323.7L319.4,323.7z"/>
	<path class="st2" d="M375.1,330.5c0,15-11,25.6-26.2,25.6s-26.2-10.6-26.2-25.6c0-14,12.6-23.9,26.2-23.9
		C362.6,306.6,375.1,316.4,375.1,330.5z M335.6,330.5c0,8,6,13.9,13.4,13.9s13.4-5.9,13.4-13.9c0-6.4-6-12.2-13.4-12.2
		S335.6,324.1,335.6,330.5z"/>
	<path class="st2" d="M391.2,344.3H406v10.2h-27.1v-46.4h12.3L391.2,344.3L391.2,344.3z"/>
	<path class="st2" d="M422.8,344.3h14.8v10.2h-27.1v-46.4h12.3V344.3L422.8,344.3z"/>
	<path class="st2" d="M454.4,318.4v7.8h13.9v10.2h-13.9v8H469v10.2h-26.9v-46.4H469v10.2L454.4,318.4z"/>
	<path class="st2" d="M523.8,328.6c-0.1,6.8-0.6,12.6-4.8,18.3c-4.7,6.3-11.6,9.1-19.5,9.1c-14.9,0-25.2-9.9-25.2-24.5
		c0-15.1,10.4-25,25.7-25c9.7,0,17.3,4.3,21.4,13l-11.7,4.8c-1.7-4.4-5.3-7.4-10.2-7.4c-8.1,0-12.3,7.6-12.3,14.6
		c0,7.2,4.4,14.5,12.5,14.5c5.3,0,9.4-2.7,9.9-8.1h-10v-9.5L523.8,328.6z"/>
	<path class="st2" d="M541.8,318.4v7.8h13.9v10.2h-13.9v8h14.6v10.2h-26.9v-46.4h26.9v10.2L541.8,318.4z"/>
	<path class="st3" d="M284.4,388.3c0-2.9,2.2-5.6,5.1-5.6c1.8-0.1,3.4,1.4,3.4,3.2c0,0.1,0,0.3,0,0.4c0,2.8-2.2,5.6-5.1,5.6
		c-1.8,0.1-3.4-1.4-3.4-3.2C284.4,388.6,284.4,388.4,284.4,388.3z M287.5,386c-0.5,1.2-0.7,2.4-0.8,3.7c0,0.6,0.2,1.4,1,1.4
		c1.9,0,3-5,3-6.5c0-0.7-0.3-1.3-1-1.3C288.4,383.4,287.8,385.1,287.5,386z"/>
	<path class="st3" d="M295.6,393.1c-0.6,1.9-1.6,4-4,4c-0.8,0-1.8-0.4-1.8-1.4c0-0.6,0.4-1,1-1c0.6,0,0.8,0.4,0.9,0.9
		c0,0.3,0.1,0.6,0.4,0.6c0.5,0,0.6-0.7,0.7-1l0.9-3.6l1.8-7.9h-1.7l0.2-0.8h1.7c0.6-2.4,1.8-5.2,4.7-5.2c0.8,0,2,0.2,2,1.3
		c0,0.6-0.4,1-1,1c-1.2,0-0.9-1.4-1.7-1.4c-0.6,0-0.8,0.7-1,1.1c-0.4,1.1-0.6,2.2-0.8,3.3h2l-0.2,0.8h-2L295.6,393.1z"/>
	<path class="st3" d="M308.9,376.9h7.8v1.6h-6v4.2h6v1.6h-6v7.3h-1.8V376.9z"/>
	<path class="st3" d="M320,386.9c0,2.4,0.6,3.6,2.6,3.6s2.6-1.1,2.6-3.6v-4.5h1.6v5.4c0,2.8-1.4,4.2-4.2,4.2c-2.7,0-4.2-1.4-4.2-4.2
		v-5.4h1.6V386.9z"/>
	<path class="st3" d="M329.6,382.4h1.4v1.9c0.8-1.6,1.7-2.2,3.1-2.2c0.4,0,0.7,0.1,1.1,0.2l-0.5,1.4c-0.3-0.1-0.7-0.2-1-0.2
		c-1.7,0-2.5,1.2-2.5,3.6v4.5h-1.6V382.4L329.6,382.4z"/>
	<path class="st3" d="M335.4,383.7v-1.3h1.7v-3.7h1.6v3.7h1.7v1.3h-1.7v7.9h-1.6v-7.9H335.4z"/>
	<path class="st3" d="M342,376h1.5v7.8c0.7-1.2,2-1.9,3.4-1.8c2.1,0,3.5,1.2,3.5,3.3v6.3h-1.6v-5.4c0-1.9-0.8-2.8-2.4-2.8
		c-0.8,0-1.7,0.4-2.2,1c-0.4,0.7-0.6,1.6-0.5,2.4v4.8H342V376z"/>
	<path class="st3" d="M354.2,387.2v0.1c-0.1,1.7,1.1,3.1,2.7,3.3c0.1,0,0.2,0,0.3,0c1.3-0.1,2.4-0.8,3-2l1.2,0.8
		c-0.8,1.6-2.5,2.6-4.3,2.5c-2.8,0-4.7-2-4.7-5c-0.2-2.5,1.7-4.7,4.2-4.9c0.1,0,0.3,0,0.4,0c2.7,0,4.4,1.8,4.4,4.9v0.3L354.2,387.2z
		 M357,383.4c-1.4,0-2.7,1.1-2.8,2.5h5.6c0-1.4-1.2-2.5-2.6-2.5C357.1,383.4,357.1,383.4,357,383.4L357,383.4z"/>
	<path class="st3" d="M363.6,382.4h1.4v1.9c0.8-1.6,1.7-2.2,3.1-2.2c0.4,0,0.7,0.1,1.1,0.2l-0.5,1.4c-0.3-0.1-0.7-0.2-1-0.2
		c-1.7,0-2.5,1.2-2.5,3.6v4.5h-1.6V382.4L363.6,382.4z"/>
	<path class="st3" d="M376.7,376.9h7.8v1.6h-6v4.2h6v1.6h-6v5.6h6v1.6h-7.8V376.9z"/>
	<path class="st3" d="M395.6,391.6h-1.5v-1.7c-0.6,1.3-1.9,2.1-3.3,2.1c-2.6,0-4.4-2-4.4-5c0-3.1,1.8-5,4.4-5c1.5,0,2.8,0.8,3.4,2.1
		V376h1.6v15.6H395.6z M391,383.6c-1.6-0.1-2.9,1.2-3,2.8c0,0.1,0,0.3,0,0.4c0,2.3,1.2,3.6,3,3.6c1.9,0,3.1-1.2,3.1-3.4
		c0.2-1.7-1-3.2-2.7-3.4C391.2,383.6,391.1,383.6,391,383.6z"/>
	<path class="st3" d="M400.1,386.9c0,2.4,0.6,3.6,2.6,3.6s2.6-1.1,2.6-3.6v-4.5h1.6v5.4c0,2.8-1.4,4.2-4.2,4.2
		c-2.7,0-4.2-1.4-4.2-4.2v-5.4h1.6V386.9z"/>
	<path class="st3" d="M416.8,391.3c-1,0.5-2,0.8-3.1,0.7c-2.9,0-4.7-2-4.7-4.9c-0.2-2.6,1.8-4.8,4.3-5c0.2,0,0.3,0,0.5,0
		c1,0,2,0.2,2.9,0.6v1.7c-0.8-0.5-1.7-0.8-2.6-0.8c-1.8-0.1-3.3,1.3-3.4,3.2c0,0.1,0,0.2,0,0.3c-0.1,1.8,1.3,3.2,3.1,3.3
		c0.1,0,0.1,0,0.2,0c1,0,2-0.4,2.8-1L416.8,391.3L416.8,391.3z"/>
	<path class="st3" d="M427.3,391.6h-1.5v-1.7c-0.6,1.3-1.9,2.1-3.3,2.1c-2.6,0-4.4-2-4.4-5c0-3.1,1.8-5,4.3-5c1.5,0,2.8,0.8,3.4,2.1
		v-1.7h1.6v9.2H427.3z M422.7,383.6c-1.9,0-3,1.2-3,3.3c0,2.2,1.1,3.5,3.1,3.5c1.9,0,3-1.2,3-3.3S424.5,383.6,422.7,383.6
		L422.7,383.6z"/>
	<path class="st3" d="M428.8,383.7v-1.3h1.7v-3.7h1.6v3.7h1.7v1.3h-1.7v7.9h-1.6v-7.9H428.8z"/>
	<path class="st3" d="M436.3,376.8c0.6,0,1.1,0.5,1.1,1.2c0,0,0,0,0,0c0,0.6-0.5,1.1-1.1,1.1s-1.1-0.5-1.1-1.1
		c-0.1-0.6,0.3-1.1,0.8-1.2C436.1,376.8,436.2,376.8,436.3,376.8z M435.5,382.4h1.6v9.2h-1.6V382.4z"/>
	<path class="st3" d="M440.9,383.5c0.9-0.9,2.2-1.4,3.5-1.4c2.7,0,5,2.2,5,4.9c0,1.4-0.5,2.7-1.5,3.6c-0.9,1-2.2,1.5-3.5,1.5
		c-1.3,0-2.6-0.5-3.5-1.5c-1-0.9-1.5-2.2-1.5-3.5C439.4,385.7,439.9,384.4,440.9,383.5z M444.4,390.5c1.9-0.1,3.4-1.8,3.3-3.7
		c-0.1-1.8-1.5-3.2-3.3-3.3c-1.8,0-3.3,1.5-3.3,3.3c0,0.1,0,0.1,0,0.2C441,388.9,442.5,390.4,444.4,390.5
		C444.4,390.5,444.4,390.5,444.4,390.5z"/>
	<path class="st3" d="M451.7,382.4h1.5v1.4c0.7-1.2,2-1.9,3.4-1.8c2.1,0,3.5,1.2,3.5,3.3v6.3h-1.6v-5.4c0-1.9-0.8-2.8-2.4-2.8
		c-0.8,0-1.7,0.4-2.2,1c-0.4,0.7-0.6,1.6-0.5,2.4v4.8h-1.6L451.7,382.4L451.7,382.4z"/>
	<path class="st3" d="M476.9,389.9c-1.2,1.3-2.8,2-4.5,2c-2.3,0.2-4.2-1.5-4.4-3.8c0-0.1,0-0.3,0-0.4c0-1.8,1.1-3.3,3.4-4.5
		l-0.6-0.7c-0.6-0.7-1-1.6-1-2.5c0-1.7,1.4-3.1,3.2-3.1c0.1,0,0.2,0,0.2,0c1.6-0.2,3.1,1,3.3,2.7c0,0.1,0,0.3,0,0.4
		c0,1.5-0.9,2.6-2.7,3.7l3.2,3.9c0.6-0.7,1.2-1.5,1.8-2.3l1.1,1.2c-0.6,0.8-1.2,1.6-1.9,2.3l2.4,2.8h-2.1L476.9,389.9z M472.4,384.4
		l-0.4,0.3c-1.3,0.9-2.1,1.7-2.1,3c0,1.5,1.1,2.7,2.6,2.7c0,0,0.1,0,0.1,0c1.3-0.1,2.5-0.7,3.4-1.7L472.4,384.4z M473.6,382.2
		c0.8-0.4,1.3-1.2,1.4-2.1c0-0.9-0.8-1.7-1.7-1.7c-0.9,0-1.7,0.8-1.7,1.7c0,0,0,0,0,0c0,0.5,0.2,1,0.5,1.4l0.9,1.1L473.6,382.2z"/>
	<path class="st3" d="M491,378.5h-4.2v-1.7h10.1v1.7h-4.1v13.1H491V378.5z"/>
	<path class="st3" d="M496.4,382.4h1.4v1.9c0.8-1.6,1.7-2.2,3.1-2.2c0.4,0,0.7,0.1,1.1,0.2l-0.5,1.4c-0.3-0.1-0.7-0.2-1-0.2
		c-1.7,0-2.5,1.2-2.5,3.6v4.5h-1.6V382.4L496.4,382.4z"/>
	<path class="st3" d="M512,391.6h-1.5v-1.7c-0.6,1.3-1.9,2.1-3.3,2.1c-2.6,0-4.4-2-4.4-5c0-3.1,1.8-5,4.3-5c1.5,0,2.8,0.8,3.4,2.1
		v-1.7h1.6L512,391.6L512,391.6z M507.4,383.6c-1.9,0-3,1.2-3,3.3c0,2.2,1.1,3.5,3.1,3.5c1.9,0,3-1.2,3-3.3S509.2,383.6,507.4,383.6
		z"/>
	<path class="st3" d="M515.8,376.8c0.7,0,1.2,0.5,1.2,1.2c0,0.7-0.5,1.2-1.2,1.2s-1.2-0.5-1.2-1.2
		C514.6,377.4,515.2,376.8,515.8,376.8z M515,382.4h1.6v9.2H515V382.4z"/>
	<path class="st3" d="M519.7,382.4h1.5v1.4c0.7-1.2,2-1.9,3.4-1.8c2.1,0,3.5,1.2,3.5,3.3v6.3h-1.6v-5.4c0-1.9-0.8-2.8-2.4-2.8
		c-0.8,0-1.7,0.4-2.2,1c-0.4,0.7-0.6,1.6-0.5,2.4v4.8h-1.6L519.7,382.4L519.7,382.4z"/>
	<path class="st3" d="M531.9,376.8c0.7,0,1.2,0.5,1.2,1.2c0,0.7-0.5,1.2-1.2,1.2s-1.2-0.5-1.2-1.2
		C530.7,377.4,531.2,376.8,531.9,376.8C531.8,376.8,531.9,376.8,531.9,376.8z M531.1,382.4h1.6v9.2h-1.6V382.4z"/>
	<path class="st3" d="M535.8,382.4h1.5v1.4c0.7-1.2,2-1.9,3.4-1.8c2.1,0,3.5,1.2,3.5,3.3v6.3h-1.6v-5.4c0-1.9-0.8-2.8-2.4-2.8
		c-0.8,0-1.7,0.4-2.2,1c-0.4,0.7-0.6,1.6-0.5,2.4v4.8h-1.6L535.8,382.4L535.8,382.4z"/>
	<path class="st3" d="M555.6,391.5c0,1.3,0,2.4-0.9,3.3c-1,1-2.3,1.5-3.7,1.4c-2.8,0-4.4-1.4-4.5-3.7h1.8v0.1c0,1.4,1,2.2,2.7,2.2
		c1,0.1,2-0.3,2.6-1.2c0.3-0.7,0.4-1.4,0.4-2.1V390c-0.6,1.2-1.9,2-3.3,2c-2.6,0-4.4-1.9-4.4-4.9c0-3.1,1.8-4.9,4.3-4.9
		c1.4,0,2.7,0.7,3.4,2v-1.7h1.6L555.6,391.5L555.6,391.5z M551,383.6c-1.9,0-3,1.2-3,3.3c0,2.2,1.1,3.5,3.1,3.5c1.9,0,3-1.2,3-3.4
		c0.2-1.7-1.1-3.2-2.7-3.4C551.2,383.6,551.1,383.6,551,383.6z"/>
	<path class="st2" d="M242.1,251l-40.1-4.8h-0.2l-40.1,4.8c-2.7,0-4.8,2.1-4.8,4.8l0,0V317c0,24.7,20,44.7,44.7,44.7c0,0,0,0,0,0
		h0.6c24.7,0,44.7-20,44.7-44.7c0,0,0,0,0,0v-61.2C246.9,253.2,244.7,251,242.1,251z"/>
	<path class="st3" d="M240.6,357.4c-1,0.8-2.1,1.3-3.3,1.5c-1.4,0.3-2.8,0.4-4.2,0.2c-3-0.5-5.1-1.9-5.9-3.4c1-0.5,2-0.8,3.1-0.9
		c1.3-0.2,2.7-0.2,4,0c1.3,0.1,2.6,0.4,3.9,0.9C239.1,356,240,356.6,240.6,357.4z"/>
	<path class="st3" d="M228.4,341.9c-0.7,0.6-1.2,1.4-1.6,2.2c-0.5,1.1-0.8,2.2-1,3.4c-0.5,2.5-0.4,5,0.4,6.5
		c0.9-0.5,1.7-1.3,2.2-2.2c0.6-1.1,1.1-2.3,1.3-3.5c0.2-1.2,0.2-2.4-0.1-3.6C229.4,343.7,229,342.7,228.4,341.9z"/>
	<path class="st3" d="M250.1,348.3c-0.4,0.4-0.8,0.8-1.3,1.2c-0.5,0.4-1.1,0.7-1.7,0.9c-1.3,0.5-2.7,0.9-4.1,1
		c-1.3,0.1-2.6-0.1-3.9-0.5c-1-0.3-1.9-0.9-2.6-1.6c2-1.3,4.4-2.1,6.8-2.2c1.3-0.1,2.6-0.1,3.9,0.2
		C248.3,347.3,249.3,347.6,250.1,348.3z"/>
	<path class="st3" d="M235.1,335.4c-0.3,0.3-0.5,0.7-0.6,1.1c-0.2,0.4-0.3,0.9-0.5,1.4c-0.3,1.1-0.4,2.3-0.4,3.5
		c0,1.2,0.2,2.4,0.4,3.6c0.2,1,0.7,1.9,1.3,2.7c1.4-1.1,2.3-3.6,2.3-6.2c0-1.2-0.3-2.5-0.8-3.6C236.5,336.9,235.9,336.1,235.1,335.4
		z"/>
	<path class="st3" d="M257.7,337.6c-0.7,1-1.5,1.9-2.5,2.6c-1.2,0.8-2.5,1.4-3.9,1.7c-1.3,0.3-2.6,0.4-3.9,0.3c-1-0.1-2-0.5-2.8-1.1
		c0.7-0.8,1.6-1.5,2.5-2c1.2-0.6,2.4-1.1,3.7-1.5C253.5,336.7,256.2,336.7,257.7,337.6z"/>
	<path class="st3" d="M240.6,327.8c-0.4,0.8-0.6,1.7-0.6,2.6c0,1.2,0,2.3,0.2,3.5c0.2,1.2,0.6,2.4,1.2,3.5c0.4,0.9,1,1.7,1.7,2.4
		c0.6-0.9,1-1.9,1.2-2.9c0.2-1.2,0.2-2.5-0.1-3.7C243.5,330.6,242.1,328.6,240.6,327.8z"/>
	<path class="st3" d="M263.2,325.6c-0.5,1.1-1.1,2.1-2,3c-1,1-2.1,1.8-3.4,2.4c-2.7,1.2-5.2,1.2-6.8,0.4c0.5-1,1.2-1.8,2.1-2.5
		c0.5-0.4,1-0.8,1.6-1.1c0.6-0.4,1.2-0.7,1.8-1C258.9,325.6,261.5,325.1,263.2,325.6z"/>
	<path class="st3" d="M244.5,319.2c-0.3,0.9-0.4,1.8-0.2,2.7c0.2,1.2,0.5,2.3,0.9,3.4c0.7,2.2,2.1,4,4,5.3c0.4-0.9,0.6-2,0.6-3
		c0-0.6,0-1.2-0.2-1.8c-0.1-0.6-0.4-1.2-0.6-1.9C248.2,321.8,246.6,320.1,244.5,319.2z"/>
	<path class="st3" d="M266.2,312.9c-0.1,0.6-0.2,1.1-0.4,1.7c-0.3,0.6-0.6,1.2-0.9,1.7c-0.8,1.2-1.8,2.2-2.9,3
		c-1.9,1.4-4.3,2.1-6.6,1.7c0.4-1,1-2,1.7-2.8c0.8-1.1,1.7-2,2.8-2.8C262.1,313.6,264.5,312.6,266.2,312.9z"/>
	<path class="st3" d="M246.7,310.1c0,0.4,0,0.8,0.1,1.2c0,0.5,0.1,1,0.3,1.4c0.4,1.1,0.9,2.2,1.6,3.2c1.1,2,2.7,3.5,4.8,4.4
		c0.2-1,0.3-2.1,0.1-3.1c-0.3-1.2-0.8-2.3-1.5-3.4C250.9,311.9,248.9,310.5,246.7,310.1z"/>
	<path class="st3" d="M266.8,299.7c0,1.2-0.2,2.5-0.7,3.6c-0.6,1.3-1.3,2.5-2.3,3.5c-0.5,0.5-1,1-1.5,1.4c-0.5,0.4-1,0.7-1.6,0.9
		c-0.9,0.4-2,0.6-3,0.6c0.5-2.4,1.7-4.6,3.4-6.3l1.5-1.5c0.5-0.4,1-0.8,1.5-1.1C264.9,300.2,265.8,299.8,266.8,299.7z"/>
	<path class="st3" d="M247.1,300.7c0.1,0.9,0.4,1.8,0.9,2.5c0.6,1,1.3,2,2.1,2.8c0.4,0.5,0.9,0.9,1.4,1.3c0.4,0.4,0.9,0.7,1.4,1
		c0.8,0.6,1.8,1,2.8,1.1c0.3-1.8-0.8-4.2-2.6-6.1c-0.4-0.5-0.9-0.9-1.5-1.2c-0.5-0.3-1-0.6-1.6-0.8
		C249.1,300.9,248.1,300.7,247.1,300.7z"/>
	<path class="st3" d="M264.9,286.7c0.2,1.2,0.2,2.4,0,3.6c-0.3,1.4-0.9,2.7-1.6,3.9c-0.7,1.1-1.6,2.1-2.6,2.9
		c-0.8,0.6-1.8,1-2.8,1.1c-0.1-1.1,0.1-2.2,0.4-3.2c0.4-1.3,1-2.5,1.7-3.6C261.3,289,263.2,287.2,264.9,286.7z"/>
	<path class="st3" d="M252.6,277.5c1,0.7,1.9,1.6,2.6,2.6c0.8,1.2,1.3,2.5,1.6,3.9c0.3,1.3,0.3,2.6,0.1,3.9c-0.2,1-0.6,2-1.2,2.8
		c-0.8-0.7-1.4-1.6-1.9-2.6c-0.6-1.2-1.1-2.5-1.4-3.8C251.6,281.6,251.7,279,252.6,277.5z"/>
	<path class="st3" d="M245.7,291.4c0.2,0.9,0.7,1.7,1.4,2.3c0.8,0.9,1.6,1.7,2.6,2.4c1,0.8,2.1,1.4,3.3,1.8c0.9,0.4,1.9,0.6,2.9,0.5
		c-0.1-1-0.5-2-1.1-2.9c-0.7-1-1.6-1.9-2.6-2.6C250.3,291.6,248,291,245.7,291.4z"/>
	<path class="st3" d="M225,355.8"/>
	<path class="st3" d="M163.4,357.4c1,0.8,2.1,1.3,3.3,1.5c1.4,0.3,2.8,0.4,4.2,0.2c3-0.5,5.1-1.9,5.9-3.4c-1-0.5-2-0.8-3.1-0.9
		c-1.3-0.2-2.7-0.2-4,0c-1.3,0.1-2.6,0.4-3.9,0.9C164.9,356,164,356.6,163.4,357.4z"/>
	<path class="st3" d="M175.6,341.9c0.7,0.6,1.2,1.4,1.6,2.2c0.5,1.1,0.8,2.2,1,3.4c0.5,2.5,0.4,5-0.4,6.5c-0.9-0.5-1.7-1.3-2.2-2.2
		c-0.6-1.1-1.1-2.3-1.3-3.5c-0.2-1.2-0.2-2.4,0.1-3.6C174.6,343.7,175,342.7,175.6,341.9z"/>
	<path class="st3" d="M153.9,348.3c0.4,0.4,0.8,0.8,1.3,1.2c0.5,0.4,1.1,0.7,1.7,0.9c1.3,0.5,2.7,0.9,4.1,1c1.3,0.1,2.6-0.1,3.9-0.5
		c1-0.3,1.9-0.9,2.6-1.6c-2-1.3-4.4-2.1-6.8-2.2c-1.3-0.1-2.6-0.1-3.9,0.2C155.7,347.3,154.7,347.6,153.9,348.3z"/>
	<path class="st3" d="M168.9,335.4c0.3,0.3,0.5,0.7,0.6,1.1c0.2,0.4,0.3,0.9,0.5,1.4c0.3,1.1,0.4,2.3,0.4,3.5c0,1.2-0.2,2.4-0.4,3.6
		c-0.2,1-0.7,1.9-1.3,2.7c-1.4-1.1-2.3-3.6-2.3-6.2c0-1.2,0.3-2.5,0.8-3.6C167.6,336.9,168.1,336.1,168.9,335.4z"/>
	<path class="st3" d="M146.3,337.6c0.7,1,1.5,1.9,2.5,2.6c1.2,0.8,2.5,1.4,3.9,1.7c1.3,0.3,2.6,0.4,3.9,0.3c1-0.1,2-0.5,2.8-1.1
		c-0.7-0.8-1.6-1.5-2.5-2c-1.2-0.6-2.4-1.1-3.7-1.5C150.4,336.7,147.8,336.7,146.3,337.6z"/>
	<path class="st3" d="M163.4,327.8c0.4,0.8,0.6,1.7,0.6,2.6c0,1.2,0,2.3-0.2,3.5c-0.2,1.2-0.6,2.4-1.2,3.5c-0.4,0.9-1,1.7-1.7,2.4
		c-0.6-0.9-1-1.9-1.2-2.9c-0.2-1.2-0.2-2.5,0.1-3.7C160.2,331,161.5,329,163.4,327.8z"/>
	<path class="st3" d="M140.8,325.6c0.5,1.1,1.1,2.1,2,3c1,1,2.1,1.8,3.4,2.4c2.7,1.2,5.2,1.2,6.8,0.4c-0.5-1-1.2-1.8-2.1-2.5
		c-0.5-0.4-1-0.8-1.6-1.1c-0.6-0.4-1.2-0.7-1.8-1C145.1,325.6,142.5,325.1,140.8,325.6z"/>
	<path class="st3" d="M159.5,319.2c0.3,0.9,0.4,1.8,0.2,2.7c-0.2,1.2-0.5,2.3-0.9,3.4c-0.7,2.2-2.1,4-4,5.3c-0.4-0.9-0.6-2-0.6-3
		c0-0.6,0-1.2,0.2-1.8c0.1-0.6,0.4-1.2,0.6-1.9C155.8,321.8,157.4,320.1,159.5,319.2z"/>
	<path class="st3" d="M137.8,312.9c0.1,0.6,0.2,1.1,0.4,1.7c0.3,0.6,0.6,1.2,0.9,1.7c0.8,1.2,1.8,2.2,2.9,3c1.9,1.4,4.3,2.1,6.6,1.7
		c-0.4-1-1-2-1.7-2.8c-0.8-1.1-1.7-2-2.8-2.8C141.8,313.6,139.5,312.6,137.8,312.9z"/>
	<path class="st3" d="M157.3,310.1c0,0.4,0,0.8-0.1,1.2c0,0.5-0.1,1-0.3,1.4c-0.4,1.1-0.9,2.2-1.6,3.2c-1.4,2.2-3.2,3.9-4.8,4.4
		c-0.2-1-0.3-2.1-0.1-3.1c0.3-1.2,0.8-2.3,1.5-3.4C153.1,311.9,155.1,310.5,157.3,310.1z"/>
	<path class="st3" d="M137.2,299.7c0,1.2,0.2,2.5,0.7,3.6c0.6,1.3,1.4,2.5,2.3,3.5c0.5,0.5,1,1,1.5,1.4c0.5,0.4,1,0.7,1.6,0.9
		c0.9,0.4,2,0.6,3,0.6c-0.5-2.4-1.7-4.6-3.4-6.3l-1.5-1.5c-0.5-0.4-1-0.8-1.5-1.1C139.1,300.2,138.2,299.8,137.2,299.7z"/>
	<path class="st3" d="M156.9,300.7c-0.1,0.9-0.4,1.8-0.9,2.5c-0.6,1-1.3,2-2.1,2.8c-0.4,0.5-0.9,0.9-1.4,1.3c-0.4,0.4-0.9,0.7-1.4,1
		c-0.8,0.6-1.8,1-2.8,1.1c-0.3-1.8,0.8-4.2,2.6-6.1c0.4-0.5,0.9-0.9,1.5-1.2c0.5-0.3,1-0.6,1.6-0.8
		C154.9,300.9,155.9,300.7,156.9,300.7z"/>
	<path class="st3" d="M139.1,286.7c-0.2,1.2-0.2,2.4,0,3.6c0.3,1.4,0.9,2.7,1.6,3.9c0.7,1.1,1.6,2.1,2.6,2.9c0.8,0.6,1.8,1,2.8,1.1
		c0-1.1-0.1-2.2-0.4-3.2c-0.4-1.3-0.9-2.5-1.7-3.6C142.7,289,140.8,287.2,139.1,286.7z"/>
	<path class="st3" d="M151.4,277.5c-1,0.7-1.9,1.6-2.6,2.6c-0.8,1.2-1.3,2.5-1.6,3.9c-0.3,1.3-0.3,2.6-0.1,3.9c0.2,1,0.6,2,1.2,2.8
		c0.8-0.7,1.4-1.6,1.9-2.6c0.6-1.2,1.1-2.5,1.4-3.8C152.4,281.6,152.3,279,151.4,277.5z"/>
	<path class="st3" d="M158.3,291.4c-0.2,0.9-0.7,1.7-1.4,2.3c-0.8,0.9-1.6,1.7-2.6,2.4c-1,0.8-2.1,1.4-3.3,1.8
		c-0.9,0.4-1.9,0.6-2.9,0.5c0.1-1,0.5-2,1.1-2.9c0.7-1,1.6-1.9,2.6-2.6C153.7,291.6,156,291,158.3,291.4z"/>
	<path class="st3" d="M178.8,355.8"/>
	<path class="st3" d="M257.1,295.4c-0.4-2.8-0.9-5.6-1.7-8.3l-1.1,0.3c0.8,2.7,1.3,5.4,1.7,8.1c2.3,18-3.8,36.1-16.5,49
		c-6.7,6.6-15.1,11.3-24.2,13.7h-0.1c-0.3,0.1-0.8,0.3-1.1,0.4c-5.3,1.5-12.1,6.8-12.1,6.8c-4.8-4.5-15-7.5-15-7.5l0,0
		c-5.4-1.5-10.6-3.9-15.2-7c-17.5-12.7-26.7-33.9-23.9-55.3c0.4-2.7,0.9-5.4,1.7-8.1l-1.1-0.3c-0.8,2.7-1.3,5.5-1.7,8.3
		c-0.6,4.6-0.7,9.3-0.2,14c1.4,25,18.5,45.7,41.4,51.7c3.9,1.6,7.6,3.7,10.9,6.4c0.4,0.3,0.8,0.6,1.1,1c0.8,0.8,1.3,1.2,1.3,1.2l0,0
		c0.2,0.2,0.4,0.4,0.4,0.5l1.6-1.6c3.8-3.4,8.3-6.1,13.1-7.8c19.4-5.5,34.5-21.7,39-42C257.5,311.3,258.1,303.3,257.1,295.4z"/>
	<path class="st4" d="M230,318.5L230,318.5c-1.2-0.1-2.4-0.3-3.6-0.6c-2.1-1.8-4-3.8-5.8-5.9c-4.8-5.3-9-10.1-12.7-14.4l0,0
		l-3.1-3.7c3.7-4.4,7.5-8.7,12.6-14.3c1.8-2.1,3.7-4.1,5.8-5.9c1.2-0.3,2.4-0.5,3.6-0.6V273h0.1v-3c-2.9,0.1-6,0.1-9.3,0.1
		c-2.3,0-6.2-0.1-11.8-0.3v3.1c3.1,0.2,4.8,0.4,5.1,0.6c0.1,0,0.2,0.1,0.3,0.2c-1.8,2.2-4.2,5-7.2,8.5c-3.4,4-6.6,7.6-9.7,10.9
		c-0.6,0.5-1.2,1-1.7,1.4h-0.2c-0.4,0-0.6-0.1-0.7-0.4c0-10.3,0.1-16.3,0.2-17.8c0.1-1.2,0.4-2,0.9-2.3s2.3-0.6,5.5-0.8v-3.1h-0.1
		V270c-3.7,0.2-7.8,0.3-12.3,0.3c-2.3,0-6.2-0.1-11.8-0.3v3.1h0.1v0.1c1.6,0,3.3,0.1,4.9,0.4h0.1c0.3,0.1,0.5,0.3,0.6,0.5
		c0.3,0.7,0.5,1.4,0.6,2.2c0.4,3.6,0.5,7.1,0.4,10.7v13.8c0,4.4-0.1,8.1-0.2,11c-0.1,3-0.3,4.7-0.6,5.2c-0.1,0.4-0.4,0.6-0.8,0.7
		c-1.7,0.4-3.5,0.5-5.3,0.5v3.1h0.1v0.1c5.6-0.2,9.5-0.3,11.8-0.3c4.5,0,8.6,0.1,12.3,0.3v-3.1H198v-0.1c-3.2-0.2-5-0.5-5.5-0.8
		c-0.2-0.1-0.4-0.3-0.5-0.6c-0.3-1.8-0.4-3.6-0.3-5.4l-0.1-11.1c-0.1-1,0-1.9,0.1-2.9c0.1-0.3,0.4-0.4,0.7-0.4
		c1.2,0.9,2.3,1.9,3.3,2.9c2.7,2.9,5.5,6,8.4,9.4c3.3,3.9,5.6,6.5,7.4,8.7c-0.7,0.1-2.3,0.3-4.8,0.5v3.1c3-0.1,5.5-0.2,7.5-0.2l0,0
		c1.7,0,3.2-0.1,4.2-0.1c4.5,0,8.6,0.1,12.3,0.3v-3.1L230,318.5z"/>
	<path class="st3" d="M156.8,198.4h8.2v2.5h-5.2v2.9h5.2v2.5h-5.2v3.5h5.2v2.5h-8.2V198.4z"/>
	<path class="st3" d="M167.7,212.4V203h2.7v1.5c0.7-1.1,1.8-1.8,3.1-1.8c1.3-0.2,2.5,0.6,2.9,1.9c0.7-1.2,1.9-1.9,3.3-1.9
		c1.1-0.1,2.2,0.5,2.8,1.5c0.3,0.8,0.5,1.6,0.4,2.4v5.8h-2.7v-4.6c0-1.8-0.2-2.8-1.6-2.8c-1.5,0-2,1.1-2,3.3v4.1h-2.7v-4.6
		c0-1.8-0.2-2.8-1.4-2.8c-1.5,0-2.1,1.1-2.1,3.3v4.1H167.7z"/>
	<path class="st3" d="M185.4,203h2.6v1.5c0.6-1.2,1.8-1.9,3.1-1.9c2.7,0,4.2,1.9,4.2,5s-1.7,5-4.1,5c-1.3,0.1-2.6-0.5-3.2-1.7
		c0.1,0.6,0.1,1.1,0.1,1.7v3.9h-2.7L185.4,203L185.4,203z M190.3,210.4c1.5,0,2.4-1,2.4-2.7s-0.9-2.7-2.4-2.7c-1.4,0-2.3,1-2.3,2.7
		C187.9,209.4,188.8,210.4,190.3,210.4L190.3,210.4z"/>
	<path class="st3" d="M197.6,197.6h2.7v14.8h-2.7V197.6z"/>
	<path class="st3" d="M207.7,212.8c-2.7,0.1-5.1-2-5.2-4.7c0-0.1,0-0.2,0-0.3c0-2.8,2.2-5,5-5c0.1,0,0.1,0,0.2,0
		c2.7-0.1,5.1,2,5.2,4.7c0,0.1,0,0.2,0,0.3c0,2.8-2.2,5-5,5C207.8,212.8,207.8,212.8,207.7,212.8z M207.7,205.2
		c-1.4,0-2.5,1.1-2.5,2.5s1.1,2.5,2.5,2.5s2.5-1.1,2.5-2.5c0-1.3-1-2.5-2.3-2.5C207.8,205.2,207.8,205.2,207.7,205.2z"/>
	<path class="st3" d="M213.5,203h3.1l1.6,4.3c0.2,0.7,0.4,1.4,0.4,2.1c0.1-0.7,0.3-1.5,0.6-2.2l1.4-4.2h3.1l-5.6,13.6h-3l2-5
		L213.5,203z"/>
	<path class="st3" d="M224.9,212.4V203h2.7v1.5c0.7-1.1,1.8-1.8,3.1-1.8c1.3-0.2,2.5,0.6,2.9,1.9c0.7-1.2,1.9-1.9,3.3-1.9
		c1.1-0.1,2.2,0.5,2.8,1.5c0.3,0.8,0.5,1.6,0.4,2.4v5.8h-2.7v-4.6c0-1.8-0.2-2.8-1.6-2.8c-1.5,0-2,1.1-2,3.3v4.1h-2.7v-4.6
		c0-1.8-0.2-2.8-1.4-2.8c-1.5,0-2.1,1.1-2.1,3.3v4.1H224.9z"/>
	<path class="st3" d="M244.8,208.4c0,1.1,1,2,2.1,2c0.1,0,0.1,0,0.2,0c0.9,0,1.7-0.4,2.2-1.1l2.2,1.1c-0.9,1.6-2.6,2.5-4.4,2.4
		c-3.1,0-4.9-2-4.9-5c-0.1-2.6,1.9-4.9,4.5-5c0.1,0,0.3,0,0.4,0c2.9,0,4.8,1.9,4.8,5v0.7L244.8,208.4L244.8,208.4z M247.1,204.9
		c-1.1-0.1-2.1,0.7-2.2,1.8h4.3C249.1,205.6,248.2,204.8,247.1,204.9z"/>
	<path class="st3" d="M253.9,203h2.7v1.5c0.8-1.1,2.1-1.8,3.5-1.8c1.2-0.1,2.4,0.5,3,1.5c0.4,0.7,0.5,1.6,0.4,2.4v5.8h-2.7v-4.6
		c0-1.8-0.2-2.8-1.8-2.8c-0.7,0-1.4,0.3-1.8,0.9c-0.4,0.6-0.6,1.4-0.5,2.1v4.5H254L253.9,203L253.9,203z"/>
	<path class="st3" d="M266.3,205.1H265V203h1.3v-3.1h2.7v3.1h1.3v2.1H269v7.2h-2.7V205.1z"/>
	<path class="st3" d="M281.6,217h-0.9v-19.5h0.9V217z"/>
	<path class="st3" d="M293.3,198.4h3.4c3.6,0,5.4,1.3,5.4,4.3c0,2.7-1.8,4.3-5,4.3h-0.8v5.3h-3V198.4z M296.7,204.7
		c1.6,0,2.3-0.6,2.3-2.1c0-1.4-0.7-2-2.3-2h-0.4v4.1H296.7z"/>
	<path class="st3" d="M309.2,202.7c0.3,0,0.6,0.1,1,0.1l-0.4,2.9c-0.4-0.2-0.9-0.2-1.3-0.2c-1.7,0-2.3,0.9-2.3,2.8v4.1h-2.7V203h2.7
		l-0.1,2.4C306.7,203.6,307.7,202.7,309.2,202.7z"/>
	<path class="st3" d="M316.1,212.8c-2.7,0.1-5.1-2-5.2-4.7c0-0.1,0-0.2,0-0.3c0-2.8,2.2-5,5-5c0.1,0,0.1,0,0.2,0c2.8,0,5,2.2,5,5
		S318.9,212.8,316.1,212.8z M316.1,205.2c-1.4,0-2.5,1.1-2.5,2.5s1.1,2.5,2.5,2.5s2.5-1.1,2.5-2.5c0-1.3-1-2.5-2.3-2.5
		C316.2,205.2,316.2,205.2,316.1,205.2z"/>
	<path class="st3" d="M332,215.4c-0.8,0.9-2.1,1.3-3.9,1.3c-3,0-4.6-1-4.8-2.9h3c0.1,0.7,0.6,1.1,1.8,1.1c1.6,0,2.1-0.8,2.1-2.5V211
		c-0.6,1.1-1.8,1.7-3.1,1.7c-2.5,0-4.2-1.9-4.2-5s1.6-5,4.2-5c1.3-0.1,2.5,0.7,3.1,1.9V203h2.6v9.2
		C332.9,213.3,332.6,214.4,332,215.4z M327.9,205c-1.5,0-2.4,1-2.4,2.7c-0.1,1.3,0.9,2.5,2.2,2.6s2.5-0.9,2.6-2.2c0-0.1,0-0.3,0-0.4
		c0.2-1.3-0.8-2.5-2.1-2.7C328.1,205,328,205,327.9,205z"/>
	<path class="st3" d="M341.1,202.7c0.3,0,0.6,0.1,1,0.1l-0.4,2.9c-0.4-0.2-0.9-0.2-1.3-0.2c-1.7,0-2.3,0.9-2.3,2.8v4.1h-2.7V203h2.7
		l-0.1,2.4C338.6,203.6,339.6,202.7,341.1,202.7z"/>
	<path class="st3" d="M345.5,208.4c0,1.1,1,2,2.1,2c0.1,0,0.1,0,0.2,0c0.9,0,1.7-0.4,2.2-1.1l2.2,1.1c-0.9,1.6-2.6,2.5-4.4,2.4
		c-3.1,0-4.9-2-4.9-5c-0.1-2.6,1.9-4.9,4.5-5c0.1,0,0.3,0,0.4,0c3,0,4.8,1.9,4.8,5v0.7L345.5,208.4L345.5,208.4z M347.7,204.9
		c-1.1-0.1-2.1,0.7-2.2,1.8h4.3C349.7,205.6,348.8,204.8,347.7,204.9z"/>
	<path class="st3" d="M355.7,209.7c0.2,0.8,0.9,1.3,1.7,1.2c0.9,0,1.4-0.4,1.4-0.9c0-0.8-0.8-0.9-2-1.4c-1.9-0.7-2.9-1.4-2.9-2.8
		c0-1.8,1.5-3.1,3.9-3.1c1.4-0.1,2.8,0.6,3.5,1.9l-2,1c-0.2-0.7-0.9-1.2-1.6-1.1c-0.8,0-1.4,0.4-1.4,0.9c0,0.8,0.8,1,2.2,1.4
		c1.9,0.6,2.8,1.4,2.8,2.9c0,1.8-1.5,3-4,3c-2,0-3.4-0.8-3.9-2L355.7,209.7z"/>
	<path class="st3" d="M364.6,209.7c0.2,0.8,0.9,1.3,1.7,1.2c0.9,0,1.4-0.4,1.4-0.9c0-0.8-0.8-0.9-2-1.4c-1.9-0.7-2.9-1.4-2.9-2.8
		c0-1.8,1.5-3.1,3.9-3.1c1.4-0.1,2.8,0.6,3.5,1.9l-2,1c-0.2-0.7-0.9-1.2-1.6-1.1c-0.8,0-1.4,0.4-1.4,0.9c0,0.8,0.8,1,2.2,1.4
		c1.9,0.6,2.8,1.4,2.8,2.9c0,1.8-1.5,3-4,3c-2,0-3.4-0.8-3.9-2L364.6,209.7z"/>
	<path class="st3" d="M373.8,197.6c0.9,0,1.6,0.7,1.6,1.6c0,0.9-0.7,1.6-1.6,1.6c-0.9,0-1.6-0.7-1.6-1.6
		C372.2,198.3,372.9,197.6,373.8,197.6C373.8,197.6,373.8,197.6,373.8,197.6z M372.5,203h2.7v9.4h-2.7V203z"/>
	<path class="st3" d="M382.5,212.8c-2.7,0.1-5.1-2-5.2-4.7c0-0.1,0-0.2,0-0.3c0-2.8,2.2-5,5-5c0.1,0,0.1,0,0.2,0
		c2.7-0.1,5.1,2,5.2,4.7c0,0.1,0,0.2,0,0.3c0.1,2.7-2.1,4.9-4.8,5C382.8,212.8,382.6,212.8,382.5,212.8z M382.5,205.2
		c-1.4,0-2.5,1.1-2.5,2.5s1.1,2.5,2.5,2.5s2.5-1.1,2.5-2.5c0.1-1.3-0.8-2.4-2.1-2.5C382.8,205.2,382.6,205.2,382.5,205.2z"/>
	<path class="st3" d="M389.8,203h2.7v1.5c0.8-1.1,2.1-1.8,3.5-1.8c1.2-0.1,2.4,0.5,3,1.5c0.4,0.7,0.5,1.6,0.4,2.4v5.8h-2.7v-4.6
		c0-1.8-0.2-2.8-1.8-2.8c-0.7,0-1.4,0.3-1.8,0.9c-0.4,0.6-0.6,1.4-0.5,2.1v4.5h-2.7L389.8,203L389.8,203z"/>
	<path class="st3" d="M411.5,217h-0.9v-19.5h0.9V217z"/>
	<path class="st3" d="M426.8,198.4h3.4l5.4,14h-3.4l-1.1-3h-5.4l-1,3h-3.2L426.8,198.4z M428.8,202.6c-0.2-0.6-0.3-1.3-0.4-1.9
		c-0.2,1.1-0.4,1.8-0.4,1.9l-1.5,4.4h3.9L428.8,202.6z"/>
	<path class="st3" d="M436.8,203h2.6v1.5c0.6-1.2,1.8-1.9,3.1-1.9c2.7,0,4.2,1.9,4.2,5s-1.7,5-4.1,5c-1.3,0.1-2.6-0.5-3.2-1.7
		c0.1,0.6,0.1,1.1,0.1,1.7v3.9h-2.7V203z M441.7,210.4c1.5,0,2.4-1,2.4-2.7s-0.9-2.7-2.4-2.7c-1.4,0-2.3,1-2.3,2.7
		C439.3,209.4,440.2,210.4,441.7,210.4L441.7,210.4z"/>
	<path class="st3" d="M448.9,203h2.6v1.5c0.6-1.2,1.8-1.9,3.1-1.9c2.7,0,4.2,1.9,4.2,5s-1.7,5-4.1,5c-1.3,0.1-2.6-0.5-3.2-1.7
		c0.1,0.6,0.1,1.1,0.1,1.7v3.9h-2.7V203z M453.7,210.4c1.5,0,2.4-1,2.4-2.7s-0.9-2.7-2.4-2.7c-1.4,0-2.3,1-2.3,2.7
		C451.3,209.4,452.2,210.4,453.7,210.4L453.7,210.4z"/>
	<path class="st3" d="M466.6,202.7c0.3,0,0.6,0.1,1,0.1l-0.4,2.9c-0.4-0.2-0.9-0.2-1.3-0.2c-1.7,0-2.3,0.9-2.3,2.8v4.1h-2.7V203h2.7
		l-0.1,2.4C464,203.6,465.1,202.7,466.6,202.7z"/>
	<path class="st3" d="M471,208.4c0,1.1,1,2,2.1,2c0.1,0,0.1,0,0.2,0c0.9,0,1.7-0.4,2.2-1.1l2.2,1.1c-0.9,1.6-2.6,2.5-4.4,2.4
		c-3.1,0-4.9-2-4.9-5c-0.1-2.6,1.9-4.9,4.5-5c0.1,0,0.3,0,0.4,0c3,0,4.8,1.9,4.8,5v0.7L471,208.4L471,208.4z M473.2,204.9
		c-1.1-0.1-2.1,0.7-2.2,1.8h4.3C475.2,205.6,474.3,204.8,473.2,204.9z"/>
	<path class="st3" d="M480,203h2.7v1.5c0.8-1.1,2.1-1.8,3.5-1.8c1.2-0.1,2.4,0.5,3,1.5c0.4,0.7,0.5,1.6,0.4,2.4v5.8h-2.7v-4.6
		c0-1.8-0.2-2.8-1.8-2.8c-0.7,0-1.4,0.3-1.8,0.9c-0.4,0.6-0.6,1.4-0.5,2.1v4.5H480V203z"/>
	<path class="st3" d="M492.4,205.1h-1.3V203h1.3v-3.1h2.7v3.1h1.3v2.1h-1.3v7.2h-2.7V205.1z"/>
	<path class="st3" d="M499.6,197.6c0.9,0,1.6,0.7,1.6,1.6c0,0.9-0.7,1.6-1.6,1.6c0,0,0,0,0,0c-0.9,0-1.6-0.7-1.6-1.6
		C498,198.3,498.7,197.6,499.6,197.6C499.6,197.6,499.6,197.6,499.6,197.6z M498.2,203h2.7v9.4h-2.7V203z"/>
	<path class="st3" d="M508.1,212.8c-2.7,0.1-4.9-2-5-4.7c0-0.1,0-0.3,0-0.4c-0.1-2.6,1.9-4.9,4.5-5c0.2,0,0.3,0,0.5,0
		c0.9,0,1.7,0.2,2.5,0.6v2.7c-0.6-0.6-1.4-0.9-2.2-0.9c-1.3-0.1-2.4,0.9-2.5,2.3c0,0.1,0,0.2,0,0.3c-0.1,1.4,1,2.5,2.3,2.6
		c0.1,0,0.2,0,0.3,0c0.8,0,1.6-0.3,2.1-1v2.8C509.9,212.6,509,212.8,508.1,212.8z"/>
	<path class="st3" d="M514.8,208.4c0,1.1,1,2,2.1,2c0.1,0,0.1,0,0.2,0c0.9,0,1.7-0.4,2.2-1.1l2.2,1.1c-0.9,1.6-2.6,2.5-4.4,2.4
		c-3.1,0-4.9-2-4.9-5c-0.1-2.6,1.9-4.9,4.5-5c0.1,0,0.3,0,0.4,0c3,0,4.8,1.9,4.8,5v0.7L514.8,208.4L514.8,208.4z M517,204.9
		c-1.1-0.1-2.1,0.7-2.2,1.8h4.3C519,205.6,518.1,204.8,517,204.9z"/>
	<path class="st3" d="M525,209.7c0.2,0.8,0.9,1.3,1.7,1.2c0.9,0,1.4-0.4,1.4-0.9c0-0.8-0.8-0.9-2-1.4c-1.9-0.7-2.9-1.4-2.9-2.8
		c0-1.8,1.5-3.1,3.9-3.1c1.4-0.1,2.8,0.6,3.5,1.9l-2,1c-0.2-0.7-0.9-1.2-1.6-1.1c-0.8,0-1.3,0.4-1.3,0.9c0,0.8,0.8,1,2.2,1.4
		c1.9,0.6,2.8,1.4,2.8,2.9c0,1.8-1.5,3-4,3c-2,0-3.4-0.8-3.8-2L525,209.7z"/>
	<path class="st3" d="M532.7,197.6h2.7v5.2c0,0.6,0,1.1-0.1,1.7c0.8-1.2,2.2-1.9,3.6-1.9c1.2-0.1,2.4,0.5,3,1.5
		c0.4,0.7,0.5,1.6,0.4,2.4v5.8h-2.7v-4.6c0-1.8-0.2-2.8-1.8-2.8c-0.7,0-1.4,0.3-1.8,0.9c-0.4,0.6-0.6,1.4-0.5,2.1v4.5h-2.7
		L532.7,197.6L532.7,197.6z"/>
	<path class="st3" d="M546.2,197.6c0.9,0,1.6,0.7,1.6,1.6c0,0.9-0.7,1.6-1.6,1.6c-0.9,0-1.6-0.7-1.6-1.6
		C544.7,198.3,545.3,197.7,546.2,197.6z M544.9,203h2.7v9.4h-2.7V203z"/>
	<path class="st3" d="M550.4,203h2.6v1.5c0.6-1.2,1.8-1.9,3.1-1.9c2.7,0,4.2,1.9,4.2,5s-1.7,5-4.1,5c-1.3,0.1-2.6-0.5-3.2-1.7
		c0.1,0.6,0.1,1.1,0.1,1.7v3.9h-2.7L550.4,203L550.4,203z M555.2,210.4c1.5,0,2.4-1,2.4-2.7s-0.9-2.7-2.4-2.7c-1.4,0-2.3,1-2.3,2.7
		C552.8,209.4,553.7,210.4,555.2,210.4z"/>
</g>
</svg>
